{
  "accessors": [
    {
      "bufferView": 2,
      "componentType": 5126,
      "count": 3383,
      "max": [
        1.0,
        1.1588692665100098,
        2.7850282192230225
      ],
      "min": [
        -1.0,
        -1.0,
        -1.0
      ],
      "type": "VEC3"
    },
    {
      "bufferView": 2,
      "byteOffset": 40596,
      "componentType": 5126,
      "count": 3383,
      "max": [
        1.0,
        1.0,
        1.0
      ],
      "min": [
        -1.0,
        -1.0,
        -1.0
      ],
      "type": "VEC3"
    },
    {
      "bufferView": 1,
      "componentType": 5126,
      "count": 3383,
      "max": [
        1.0,
        1.0
      ],
      "min": [
        0.0,
        0.01000000536441803
      ],
      "type": "VEC2"
    },
    {
      "bufferView": 0,
      "componentType": 5125,
      "count": 6912,
      "type": "SCALAR"
    },
    {
      "bufferView": 2,
      "byteOffset": 81192,
      "componentType": 5126,
      "count": 4,
      "max": [
        0.7040058374404907,
        1.1272988319396973,
        1.434300422668457
      ],
      "min": [
        -0.6938384771347046,
        0.8907907009124756,
        1.3996655941009521
      ],
      "type": "VEC3"
    },
    {
      "bufferView": 2,
      "byteOffset": 81240,
      "componentType": 5126,
      "count": 4,
      "max": [
        0.0,
        0.14489701390266418,
        0.989446759223938
      ],
      "min": [
        0.0,
        0.14489701390266418,
        0.989446759223938
      ],
      "type": "VEC3"
    },
    {
      "bufferView": 1,
      "byteOffset": 27064,
      "componentType": 5126,
      "count": 4,
      "max": [
        0.9601952433586121,
        0.6673672199249268
      ],
      "min": [
        0.04813021421432495,
        0.3923427164554596
      ],
      "type": "VEC2"
    },
    {
      "bufferView": 0,
      "byteOffset": 27648,
      "componentType": 5125,
      "count": 6,
      "type": "SCALAR"
    },
    {
      "bufferView": 2,
      "byteOffset": 81288,
      "componentType": 5126,
      "count": 130,
      "max": [
        1.0,
        1.0,
        1.0
      ],
      "min": [
        -1.0,
        -1.0,
        -1.0
      ],
      "type": "VEC3"
    },
    {
      "bufferView": 2,
      "byteOffset": 82848,
      "componentType": 5126,
      "count": 130,
      "max": [
        0.7278809547424316,
        0.6857142448425293,
        0.7278809547424316
      ],
      "min": [
        -0.7278809547424316,
        -0.6857142448425293,
        -0.7278809547424316
      ],
      "type": "VEC3"
    },
    {
      "bufferView": 1,
      "byteOffset": 27096,
      "componentType": 5126,
      "count": 130,
      "max": [
        1.0,
        1.0
      ],
      "min": [
        0.0,
        0.01000000536441803
      ],
      "type": "VEC2"
    },
    {
      "bufferView": 0,
      "byteOffset": 27672,
      "componentType": 5125,
      "count": 372,
      "type": "SCALAR"
    },
    {
      "bufferView": 2,
      "byteOffset": 84408,
      "componentType": 5126,
      "count": 130,
      "max": [
        1.0,
        1.0,
        1.0
      ],
      "min": [
        -1.0,
        -1.0,
        -1.0
      ],
      "type": "VEC3"
    },
    {
      "bufferView": 2,
      "byteOffset": 85968,
      "componentType": 5126,
      "count": 130,
      "max": [
        0.7278809547424316,
        0.6857142448425293,
        0.7278809547424316
      ],
      "min": [
        -0.7278809547424316,
        -0.6857142448425293,
        -0.7278809547424316
      ],
      "type": "VEC3"
    },
    {
      "bufferView": 1,
      "byteOffset": 28136,
      "componentType": 5126,
      "count": 130,
      "max": [
        1.0,
        1.0
      ],
      "min": [
        0.0,
        0.01000000536441803
      ],
      "type": "VEC2"
    },
    {
      "bufferView": 0,
      "byteOffset": 29160,
      "componentType": 5125,
      "count": 372,
      "type": "SCALAR"
    },
    {
      "bufferView": 2,
      "byteOffset": 87528,
      "componentType": 5126,
      "count": 559,
      "max": [
        1.000000238418579,
        1.0,
        1.0000003576278687
      ],
      "min": [
        -0.9999998211860657,
        -1.0,
        -1.0
      ],
      "type": "VEC3"
    },
    {
      "bufferView": 2,
      "byteOffset": 94236,
      "componentType": 5126,
      "count": 559,
      "max": [
        1.0,
        1.0,
        1.0
      ],
      "min": [
        -1.0,
        -1.0,
        -1.0
      ],
      "type": "VEC3"
    },
    {
      "bufferView": 1,
      "byteOffset": 29176,
      "componentType": 5126,
      "count": 559,
      "max": [
        1.000000238418579,
        1.0
      ],
      "min": [
        0.0,
        0.0
      ],
      "type": "VEC2"
    },
    {
      "bufferView": 0,
      "byteOffset": 30648,
      "componentType": 5125,
      "count": 2880,
      "type": "SCALAR"
    },
    {
      "bufferView": 2,
      "byteOffset": 100944,
      "componentType": 5126,
      "count": 559,
      "max": [
        1.000000238418579,
        1.0,
        1.0000003576278687
      ],
      "min": [
        -0.9999998211860657,
        -1.0,
        -1.0
      ],
      "type": "VEC3"
    },
    {
      "bufferView": 2,
      "byteOffset": 107652,
      "componentType": 5126,
      "count": 559,
      "max": [
        1.0,
        1.0,
        1.0
      ],
      "min": [
        -1.0,
        -1.0,
        -1.0
      ],
      "type": "VEC3"
    },
    {
      "bufferView": 1,
      "byteOffset": 33648,
      "componentType": 5126,
      "count": 559,
      "max": [
        1.000000238418579,
        1.0
      ],
      "min": [
        0.0,
        0.0
      ],
      "type": "VEC2"
    },
    {
      "bufferView": 0,
      "byteOffset": 42168,
      "componentType": 5125,
      "count": 2880,
      "type": "SCALAR"
    },
    {
      "bufferView": 2,
      "byteOffset": 114360,
      "componentType": 5126,
      "count": 559,
      "max": [
        1.000000238418579,
        1.0,
        1.0000003576278687
      ],
      "min": [
        -0.9999998211860657,
        -1.0,
        -1.0
      ],
      "type": "VEC3"
    },
    {
      "bufferView": 2,
      "byteOffset": 121068,
      "componentType": 5126,
      "count": 559,
      "max": [
        1.0,
        1.0,
        1.0
      ],
      "min": [
        -1.0,
        -1.0,
        -1.0
      ],
      "type": "VEC3"
    },
    {
      "bufferView": 1,
      "byteOffset": 38120,
      "componentType": 5126,
      "count": 559,
      "max": [
        1.000000238418579,
        1.0
      ],
      "min": [
        0.0,
        0.0
      ],
      "type": "VEC2"
    },
    {
      "bufferView": 0,
      "byteOffset": 53688,
      "componentType": 5125,
      "count": 2880,
      "type": "SCALAR"
    },
    {
      "bufferView": 2,
      "byteOffset": 127776,
      "componentType": 5126,
      "count": 559,
      "max": [
        1.000000238418579,
        1.0,
        1.0000003576278687
      ],
      "min": [
        -0.9999998211860657,
        -1.0,
        -1.0
      ],
      "type": "VEC3"
    },
    {
      "bufferView": 2,
      "byteOffset": 134484,
      "componentType": 5126,
      "count": 559,
      "max": [
        1.0,
        1.0,
        1.0
      ],
      "min": [
        -1.0,
        -1.0,
        -1.0
      ],
      "type": "VEC3"
    },
    {
      "bufferView": 1,
      "byteOffset": 42592,
      "componentType": 5126,
      "count": 559,
      "max": [
        1.000000238418579,
        1.0
      ],
      "min": [
        0.0,
        0.0
      ],
      "type": "VEC2"
    },
    {
      "bufferView": 0,
      "byteOffset": 65208,
      "componentType": 5125,
      "count": 2880,
      "type": "SCALAR"
    },
    {
      "bufferView": 2,
      "byteOffset": 141192,
      "componentType": 5126,
      "count": 5133,
      "max": [
        0.9935951828956604,
        1.9386382102966309,
        0.9935951232910156
      ],
      "min": [
        -0.9935951828956604,
        -1.0000003576278687,
        -0.9935951828956604
      ],
      "type": "VEC3"
    },
    {
      "bufferView": 2,
      "byteOffset": 202788,
      "componentType": 5126,
      "count": 5133,
      "max": [
        1.0,
        1.0,
        1.0
      ],
      "min": [
        -1.0,
        -1.0,
        -1.0
      ],
      "type": "VEC3"
    },
    {
      "bufferView": 1,
      "byteOffset": 47064,
      "componentType": 5126,
      "count": 5133,
      "max": [
        1.0000001192092896,
        1.0000001192092896
      ],
      "min": [
        0.0,
        0.010000006295740604
      ],
      "type": "VEC2"
    },
    {
      "bufferView": 0,
      "byteOffset": 76728,
      "componentType": 5125,
      "count": 26112,
      "type": "SCALAR"
    },
    {
      "bufferView": 2,
      "byteOffset": 264384,
      "componentType": 5126,
      "count": 24,
      "max": [
        1.0,
        1.0,
        1.0
      ],
      "min": [
        -1.0,
        -1.0,
        -1.0
      ],
      "type": "VEC3"
    },
    {
      "bufferView": 2,
      "byteOffset": 264672,
      "componentType": 5126,
      "count": 24,
      "max": [
        1.0,
        1.0,
        1.0
      ],
      "min": [
        -1.0,
        -1.0,
        -1.0
      ],
      "type": "VEC3"
    },
    {
      "bufferView": 1,
      "byteOffset": 88128,
      "componentType": 5126,
      "count": 24,
      "max": [
        0.875,
        1.0
      ],
      "min": [
        0.125,
        0.0
      ],
      "type": "VEC2"
    },
    {
      "bufferView": 0,
      "byteOffset": 181176,
      "componentType": 5125,
      "count": 36,
      "type": "SCALAR"
    },
    {
      "bufferView": 2,
      "byteOffset": 264960,
      "componentType": 5126,
      "count": 80,
      "max": [
        1.0,
        1.0,
        1.0
      ],
      "min": [
        -1.0,
        -1.0,
        -1.0
      ],
      "type": "VEC3"
    },
    {
      "bufferView": 2,
      "byteOffset": 265920,
      "componentType": 5126,
      "count": 80,
      "max": [
        1.0,
        1.0,
        1.0
      ],
      "min": [
        -1.0,
        -1.0,
        -1.0
      ],
      "type": "VEC3"
    },
    {
      "bufferView": 1,
      "byteOffset": 88320,
      "componentType": 5126,
      "count": 80,
      "max": [
        0.875,
        1.0
      ],
      "min": [
        0.125,
        0.0
      ],
      "type": "VEC2"
    },
    {
      "bufferView": 0,
      "byteOffset": 181320,
      "componentType": 5125,
      "count": 132,
      "type": "SCALAR"
    },
    {
      "bufferView": 2,
      "byteOffset": 266880,
      "componentType": 5126,
      "count": 24,
      "max": [
        1.0,
        1.0,
        1.0
      ],
      "min": [
        -1.0,
        -1.0,
        -1.0
      ],
      "type": "VEC3"
    },
    {
      "bufferView": 2,
      "byteOffset": 267168,
      "componentType": 5126,
      "count": 24,
      "max": [
        1.0,
        1.0,
        1.0
      ],
      "min": [
        -1.0,
        -1.0,
        -1.0
      ],
      "type": "VEC3"
    },
    {
      "bufferView": 1,
      "byteOffset": 88960,
      "componentType": 5126,
      "count": 24,
      "max": [
        0.875,
        1.0
      ],
      "min": [
        0.125,
        0.0
      ],
      "type": "VEC2"
    },
    {
      "bufferView": 0,
      "byteOffset": 181848,
      "componentType": 5125,
      "count": 36,
      "type": "SCALAR"
    },
    {
      "bufferView": 2,
      "byteOffset": 267456,
      "componentType": 5126,
      "count": 5133,
      "max": [
        0.9935951828956604,
        1.9386382102966309,
        0.9935951232910156
      ],
      "min": [
        -0.9935951828956604,
        -1.0000003576278687,
        -0.9935951828956604
      ],
      "type": "VEC3"
    },
    {
      "bufferView": 2,
      "byteOffset": 329052,
      "componentType": 5126,
      "count": 5133,
      "max": [
        1.0,
        1.0,
        1.0
      ],
      "min": [
        -1.0,
        -1.0,
        -1.0
      ],
      "type": "VEC3"
    },
    {
      "bufferView": 1,
      "byteOffset": 89152,
      "componentType": 5126,
      "count": 5133,
      "max": [
        1.0000001192092896,
        1.0000001192092896
      ],
      "min": [
        0.0,
        0.010000006295740604
      ],
      "type": "VEC2"
    },
    {
      "bufferView": 0,
      "byteOffset": 181992,
      "componentType": 5125,
      "count": 26112,
      "type": "SCALAR"
    },
    {
      "bufferView": 2,
      "byteOffset": 390648,
      "componentType": 5126,
      "count": 5133,
      "max": [
        0.9935951828956604,
        1.9386382102966309,
        0.9935951232910156
      ],
      "min": [
        -0.9935951828956604,
        -1.0000003576278687,
        -0.9935951828956604
      ],
      "type": "VEC3"
    },
    {
      "bufferView": 2,
      "byteOffset": 452244,
      "componentType": 5126,
      "count": 5133,
      "max": [
        1.0,
        1.0,
        1.0
      ],
      "min": [
        -1.0,
        -1.0,
        -1.0
      ],
      "type": "VEC3"
    },
    {
      "bufferView": 1,
      "byteOffset": 130216,
      "componentType": 5126,
      "count": 5133,
      "max": [
        1.0000001192092896,
        1.0000001192092896
      ],
      "min": [
        0.0,
        0.010000006295740604
      ],
      "type": "VEC2"
    },
    {
      "bufferView": 0,
      "byteOffset": 286440,
      "componentType": 5125,
      "count": 26112,
      "type": "SCALAR"
    },
    {
      "bufferView": 2,
      "byteOffset": 513840,
      "componentType": 5126,
      "count": 5133,
      "max": [
        0.9935951828956604,
        1.9386382102966309,
        0.9935951232910156
      ],
      "min": [
        -0.9935951828956604,
        -1.0000003576278687,
        -0.9935951828956604
      ],
      "type": "VEC3"
    },
    {
      "bufferView": 2,
      "byteOffset": 575436,
      "componentType": 5126,
      "count": 5133,
      "max": [
        1.0,
        1.0,
        1.0
      ],
      "min": [
        -1.0,
        -1.0,
        -1.0
      ],
      "type": "VEC3"
    },
    {
      "bufferView": 1,
      "byteOffset": 171280,
      "componentType": 5126,
      "count": 5133,
      "max": [
        1.0000001192092896,
        1.0000001192092896
      ],
      "min": [
        0.0,
        0.010000006295740604
      ],
      "type": "VEC2"
    },
    {
      "bufferView": 0,
      "byteOffset": 390888,
      "componentType": 5125,
      "count": 26112,
      "type": "SCALAR"
    },
    {
      "bufferView": 2,
      "byteOffset": 637032,
      "componentType": 5126,
      "count": 5133,
      "max": [
        0.9935951828956604,
        1.9386382102966309,
        0.9935951232910156
      ],
      "min": [
        -0.9935951828956604,
        -1.0000003576278687,
        -0.9935951828956604
      ],
      "type": "VEC3"
    },
    {
      "bufferView": 2,
      "byteOffset": 698628,
      "componentType": 5126,
      "count": 5133,
      "max": [
        1.0,
        1.0,
        1.0
      ],
      "min": [
        -1.0,
        -1.0,
        -1.0
      ],
      "type": "VEC3"
    },
    {
      "bufferView": 1,
      "byteOffset": 212344,
      "componentType": 5126,
      "count": 5133,
      "max": [
        1.0000001192092896,
        1.0000001192092896
      ],
      "min": [
        0.0,
        0.010000006295740604
      ],
      "type": "VEC2"
    },
    {
      "bufferView": 0,
      "byteOffset": 495336,
      "componentType": 5125,
      "count": 26112,
      "type": "SCALAR"
    },
    {
      "bufferView": 2,
      "byteOffset": 760224,
      "componentType": 5126,
      "count": 5133,
      "max": [
        0.9935951828956604,
        1.9386382102966309,
        0.9935951232910156
      ],
      "min": [
        -0.9935951828956604,
        -1.0000003576278687,
        -0.9935951828956604
      ],
      "type": "VEC3"
    },
    {
      "bufferView": 2,
      "byteOffset": 821820,
      "componentType": 5126,
      "count": 5133,
      "max": [
        1.0,
        1.0,
        1.0
      ],
      "min": [
        -1.0,
        -1.0,
        -1.0
      ],
      "type": "VEC3"
    },
    {
      "bufferView": 1,
      "byteOffset": 253408,
      "componentType": 5126,
      "count": 5133,
      "max": [
        1.0000001192092896,
        1.0000001192092896
      ],
      "min": [
        0.0,
        0.010000006295740604
      ],
      "type": "VEC2"
    },
    {
      "bufferView": 0,
      "byteOffset": 599784,
      "componentType": 5125,
      "count": 26112,
      "type": "SCALAR"
    },
    {
      "bufferView": 2,
      "byteOffset": 883416,
      "componentType": 5126,
      "count": 5133,
      "max": [
        0.9935951828956604,
        1.9386382102966309,
        0.9935951232910156
      ],
      "min": [
        -0.9935951828956604,
        -1.0000003576278687,
        -0.9935951828956604
      ],
      "type": "VEC3"
    },
    {
      "bufferView": 2,
      "byteOffset": 945012,
      "componentType": 5126,
      "count": 5133,
      "max": [
        1.0,
        1.0,
        1.0
      ],
      "min": [
        -1.0,
        -1.0,
        -1.0
      ],
      "type": "VEC3"
    },
    {
      "bufferView": 1,
      "byteOffset": 294472,
      "componentType": 5126,
      "count": 5133,
      "max": [
        1.0000001192092896,
        1.0000001192092896
      ],
      "min": [
        0.0,
        0.010000006295740604
      ],
      "type": "VEC2"
    },
    {
      "bufferView": 0,
      "byteOffset": 704232,
      "componentType": 5125,
      "count": 26112,
      "type": "SCALAR"
    },
    {
      "bufferView": 2,
      "byteOffset": 1006608,
      "componentType": 5126,
      "count": 5133,
      "max": [
        0.9935951828956604,
        1.9386382102966309,
        0.9935951232910156
      ],
      "min": [
        -0.9935951828956604,
        -1.0000003576278687,
        -0.9935951828956604
      ],
      "type": "VEC3"
    },
    {
      "bufferView": 2,
      "byteOffset": 1068204,
      "componentType": 5126,
      "count": 5133,
      "max": [
        1.0,
        1.0,
        1.0
      ],
      "min": [
        -1.0,
        -1.0,
        -1.0
      ],
      "type": "VEC3"
    },
    {
      "bufferView": 1,
      "byteOffset": 335536,
      "componentType": 5126,
      "count": 5133,
      "max": [
        1.0000001192092896,
        1.0000001192092896
      ],
      "min": [
        0.0,
        0.010000006295740604
      ],
      "type": "VEC2"
    },
    {
      "bufferView": 0,
      "byteOffset": 808680,
      "componentType": 5125,
      "count": 26112,
      "type": "SCALAR"
    },
    {
      "bufferView": 2,
      "byteOffset": 1129800,
      "componentType": 5126,
      "count": 5133,
      "max": [
        0.9935951828956604,
        1.9386382102966309,
        0.9935951232910156
      ],
      "min": [
        -0.9935951828956604,
        -1.0000003576278687,
        -0.9935951828956604
      ],
      "type": "VEC3"
    },
    {
      "bufferView": 2,
      "byteOffset": 1191396,
      "componentType": 5126,
      "count": 5133,
      "max": [
        1.0,
        1.0,
        1.0
      ],
      "min": [
        -1.0,
        -1.0,
        -1.0
      ],
      "type": "VEC3"
    },
    {
      "bufferView": 1,
      "byteOffset": 376600,
      "componentType": 5126,
      "count": 5133,
      "max": [
        1.0000001192092896,
        1.0000001192092896
      ],
      "min": [
        0.0,
        0.010000006295740604
      ],
      "type": "VEC2"
    },
    {
      "bufferView": 0,
      "byteOffset": 913128,
      "componentType": 5125,
      "count": 26112,
      "type": "SCALAR"
    },
    {
      "bufferView": 2,
      "byteOffset": 1252992,
      "componentType": 5126,
      "count": 5133,
      "max": [
        0.9935951828956604,
        1.9386382102966309,
        0.9935951232910156
      ],
      "min": [
        -0.9935951828956604,
        -1.0000003576278687,
        -0.9935951828956604
      ],
      "type": "VEC3"
    },
    {
      "bufferView": 2,
      "byteOffset": 1314588,
      "componentType": 5126,
      "count": 5133,
      "max": [
        1.0,
        1.0,
        1.0
      ],
      "min": [
        -1.0,
        -1.0,
        -1.0
      ],
      "type": "VEC3"
    },
    {
      "bufferView": 1,
      "byteOffset": 417664,
      "componentType": 5126,
      "count": 5133,
      "max": [
        1.0000001192092896,
        1.0000001192092896
      ],
      "min": [
        0.0,
        0.010000006295740604
      ],
      "type": "VEC2"
    },
    {
      "bufferView": 0,
      "byteOffset": 1017576,
      "componentType": 5125,
      "count": 26112,
      "type": "SCALAR"
    },
    {
      "bufferView": 2,
      "byteOffset": 1376184,
      "componentType": 5126,
      "count": 5133,
      "max": [
        0.9935951828956604,
        1.9386382102966309,
        0.9935951232910156
      ],
      "min": [
        -0.9935951828956604,
        -1.0000003576278687,
        -0.9935951828956604
      ],
      "type": "VEC3"
    },
    {
      "bufferView": 2,
      "byteOffset": 1437780,
      "componentType": 5126,
      "count": 5133,
      "max": [
        1.0,
        1.0,
        1.0
      ],
      "min": [
        -1.0,
        -1.0,
        -1.0
      ],
      "type": "VEC3"
    },
    {
      "bufferView": 1,
      "byteOffset": 458728,
      "componentType": 5126,
      "count": 5133,
      "max": [
        1.0000001192092896,
        1.0000001192092896
      ],
      "min": [
        0.0,
        0.010000006295740604
      ],
      "type": "VEC2"
    },
    {
      "bufferView": 0,
      "byteOffset": 1122024,
      "componentType": 5125,
      "count": 26112,
      "type": "SCALAR"
    },
    {
      "bufferView": 2,
      "byteOffset": 1499376,
      "componentType": 5126,
      "count": 5133,
      "max": [
        0.9935951828956604,
        1.9386382102966309,
        0.9935951232910156
      ],
      "min": [
        -0.9935951828956604,
        -1.0000003576278687,
        -0.9935951828956604
      ],
      "type": "VEC3"
    },
    {
      "bufferView": 2,
      "byteOffset": 1560972,
      "componentType": 5126,
      "count": 5133,
      "max": [
        1.0,
        1.0,
        1.0
      ],
      "min": [
        -1.0,
        -1.0,
        -1.0
      ],
      "type": "VEC3"
    },
    {
      "bufferView": 1,
      "byteOffset": 499792,
      "componentType": 5126,
      "count": 5133,
      "max": [
        1.0000001192092896,
        1.0000001192092896
      ],
      "min": [
        0.0,
        0.010000006295740604
      ],
      "type": "VEC2"
    },
    {
      "bufferView": 0,
      "byteOffset": 1226472,
      "componentType": 5125,
      "count": 26112,
      "type": "SCALAR"
    },
    {
      "bufferView": 2,
      "byteOffset": 1622568,
      "componentType": 5126,
      "count": 18,
      "max": [
        0.7656127214431763,
        0.6274769306182861,
        0.8437230587005615
      ],
      "min": [
        -0.7710729837417603,
        0.11517363786697388,
        0.5050269365310669
      ],
      "type": "VEC3"
    },
    {
      "bufferView": 2,
      "byteOffset": 1622784,
      "componentType": 5126,
      "count": 18,
      "max": [
        0.0,
        0.551495373249054,
        0.83417809009552
      ],
      "min": [
        -3.0138215834085713e-07,
        0.5514953136444092,
        0.8341779112815857
      ],
      "type": "VEC3"
    },
    {
      "bufferView": 1,
      "byteOffset": 540856,
      "componentType": 5126,
      "count": 18,
      "max": [
        0.9663294553756714,
        0.762914776802063
      ],
      "min": [
        0.032941609621047974,
        0.2527102828025818
      ],
      "type": "VEC2"
    },
    {
      "bufferView": 0,
      "byteOffset": 1330920,
      "componentType": 5125,
      "count": 30,
      "type": "SCALAR"
    }
  ],
  "asset": {
    "extras": {
      "author": "wanna96id (https://sketchfab.com/wanna96id)",
      "license": "CC-BY-4.0 (http://creativecommons.org/licenses/by/4.0/)",
      "source": "https://sketchfab.com/3d-models/arcade-machine-0d94e49d180b43268649e4e9fd713e74",
      "title": "ARCADE MACHINE"
    },
    "generator": "Sketchfab-12.68.0",
    "version": "2.0"
  },
  "bufferViews": [
    {
      "buffer": 0,
      "byteLength": 1331040,
      "name": "floatBufferViews",
      "target": 34963
    },
    {
      "buffer": 0,
      "byteLength": 541000,
      "byteOffset": 1331040,
      "byteStride": 8,
      "name": "floatBufferViews",
      "target": 34962
    },
    {
      "buffer": 0,
      "byteLength": 1623000,
      "byteOffset": 1872040,
      "byteStride": 12,
      "name": "floatBufferViews",
      "target": 34962
    }
  ],
  "buffers": [
    {
      "byteLength": 3495040,
      "uri": "scene.bin"
    }
  ],
  "materials": [
    {
      "doubleSided": true,
      "name": "Material.001",
      "pbrMetallicRoughness": {
        "baseColorFactor": [
          0.0373933,
          0.0402783,
          0.272821,
          1.0
        ],
        "metallicFactor": 0.0,
        "roughnessFactor": 0.333333
      }
    },
    {
      "doubleSided": true,
      "name": "Material.005",
      "pbrMetallicRoughness": {
        "baseColorFactor": [
          0.8,
          0.666361,
          0.0219054,
          1.0
        ],
        "metallicFactor": 0.0,
        "roughnessFactor": 0.5
      }
    },
    {
      "doubleSided": true,
      "name": "Material.003",
      "pbrMetallicRoughness": {
        "baseColorFactor": [
          0.34488,
          0.34488,
          0.34488,
          1.0
        ],
        "metallicFactor": 0.916667,
        "roughnessFactor": 0.208333
      }
    },
    {
      "doubleSided": true,
      "name": "Material.002",
      "pbrMetallicRoughness": {
        "baseColorFactor": [
          0.8,
          0.0184415,
          0.0614691,
          1.0
        ],
        "metallicFactor": 0.0,
        "roughnessFactor": 0.302083
      }
    },
    {
      "doubleSided": true,
      "name": "Material.004",
      "pbrMetallicRoughness": {
        "baseColorFactor": [
          0.016102,
          0.016102,
          0.016102,
          1.0
        ],
        "metallicFactor": 0.0,
        "roughnessFactor": 0.3125
      }
    },
    {
      "doubleSided": true,
      "name": "Material.006",
      "pbrMetallicRoughness": {
        "baseColorFactor": [
          0.0191621,
          0.0368673,
          0.8,
          1.0
        ],
        "metallicFactor": 0.0,
        "roughnessFactor": 0.239583
      }
    },
    {
      "doubleSided": true,
      "name": "Material.007",
      "pbrMetallicRoughness": {
        "baseColorFactor": [
          0.8,
          0.575772,
          0.0108078,
          1.0
        ],
        "metallicFactor": 0.0,
        "roughnessFactor": 0.5
      }
    },
    {
      "doubleSided": true,
      "name": "Material.011",
      "pbrMetallicRoughness": {
        "baseColorFactor": [
          0.0130653,
          0.0130653,
          0.0130653,
          1.0
        ],
        "metallicFactor": 0.0,
        "roughnessFactor": 0.208333
      }
    },
    {
      "doubleSided": true,
      "name": "Material.010",
      "pbrMetallicRoughness": {
        "baseColorFactor": [
          0.8,
          0.8,
          0.8,
          1.0
        ],
        "metallicFactor": 0.0,
        "roughnessFactor": 0.239583
      }
    },
    {
      "doubleSided": true,
      "name": "Material.009",
      "pbrMetallicRoughness": {
        "baseColorFactor": [
          0.8,
          0.0149623,
          0.0192889,
          1.0
        ],
        "metallicFactor": 0.0,
        "roughnessFactor": 0.239583
      }
    },
    {
      "doubleSided": true,
      "name": "Material.008",
      "pbrMetallicRoughness": {
        "baseColorFactor": [
          0.0658007,
          0.8,
          0.0268689,
          1.0
        ],
        "metallicFactor": 0.239583,
        "roughnessFactor": 0.5
      }
    },
    {
      "doubleSided": true,
      "name": "Material.012"
    }
  ],
  "meshes": [
    {
      "name": "Object_0",
      "primitives": [
        {
          "attributes": {
            "NORMAL": 1,
            "POSITION": 0,
            "TEXCOORD_0": 2
          },
          "indices": 3,
          "material": 0,
          "mode": 4
        }
      ]
    },
    {
      "name": "Object_1",
      "primitives": [
        {
          "attributes": {
            "NORMAL": 5,
            "POSITION": 4,
            "TEXCOORD_0": 6
          },
          "indices": 7,
          "material": 1,
          "mode": 4
        }
      ]
    },
    {
      "name": "Object_2",
      "primitives": [
        {
          "attributes": {
            "NORMAL": 9,
            "POSITION": 8,
            "TEXCOORD_0": 10
          },
          "indices": 11,
          "material": 2,
          "mode": 4
        }
      ]
    },
    {
      "name": "Object_3",
      "primitives": [
        {
          "attributes": {
            "NORMAL": 13,
            "POSITION": 12,
            "TEXCOORD_0": 14
          },
          "indices": 15,
          "material": 2,
          "mode": 4
        }
      ]
    },
    {
      "name": "Object_4",
      "primitives": [
        {
          "attributes": {
            "NORMAL": 17,
            "POSITION": 16,
            "TEXCOORD_0": 18
          },
          "indices": 19,
          "material": 3,
          "mode": 4
        }
      ]
    },
    {
      "name": "Object_5",
      "primitives": [
        {
          "attributes": {
            "NORMAL": 21,
            "POSITION": 20,
            "TEXCOORD_0": 22
          },
          "indices": 23,
          "material": 3,
          "mode": 4
        }
      ]
    },
    {
      "name": "Object_6",
      "primitives": [
        {
          "attributes": {
            "NORMAL": 25,
            "POSITION": 24,
            "TEXCOORD_0": 26
          },
          "indices": 27,
          "material": 4,
          "mode": 4
        }
      ]
    },
    {
      "name": "Object_7",
      "primitives": [
        {
          "attributes": {
            "NORMAL": 29,
            "POSITION": 28,
            "TEXCOORD_0": 30
          },
          "indices": 31,
          "material": 4,
          "mode": 4
        }
      ]
    },
    {
      "name": "Object_8",
      "primitives": [
        {
          "attributes": {
            "NORMAL": 33,
            "POSITION": 32,
            "TEXCOORD_0": 34
          },
          "indices": 35,
          "material": 5,
          "mode": 4
        }
      ]
    },
    {
      "name": "Object_9",
      "primitives": [
        {
          "attributes": {
            "NORMAL": 37,
            "POSITION": 36,
            "TEXCOORD_0": 38
          },
          "indices": 39,
          "material": 1,
          "mode": 4
        }
      ]
    },
    {
      "name": "Object_10",
      "primitives": [
        {
          "attributes": {
            "NORMAL": 41,
            "POSITION": 40,
            "TEXCOORD_0": 42
          },
          "indices": 43,
          "material": 2,
          "mode": 4
        }
      ]
    },
    {
      "name": "Object_11",
      "primitives": [
        {
          "attributes": {
            "NORMAL": 45,
            "POSITION": 44,
            "TEXCOORD_0": 46
          },
          "indices": 47,
          "material": 2,
          "mode": 4
        }
      ]
    },
    {
      "name": "Object_12",
      "primitives": [
        {
          "attributes": {
            "NORMAL": 49,
            "POSITION": 48,
            "TEXCOORD_0": 50
          },
          "indices": 51,
          "material": 6,
          "mode": 4
        }
      ]
    },
    {
      "name": "Object_13",
      "primitives": [
        {
          "attributes": {
            "NORMAL": 53,
            "POSITION": 52,
            "TEXCOORD_0": 54
          },
          "indices": 55,
          "material": 7,
          "mode": 4
        }
      ]
    },
    {
      "name": "Object_14",
      "primitives": [
        {
          "attributes": {
            "NORMAL": 57,
            "POSITION": 56,
            "TEXCOORD_0": 58
          },
          "indices": 59,
          "material": 8,
          "mode": 4
        }
      ]
    },
    {
      "name": "Object_15",
      "primitives": [
        {
          "attributes": {
            "NORMAL": 61,
            "POSITION": 60,
            "TEXCOORD_0": 62
          },
          "indices": 63,
          "material": 9,
          "mode": 4
        }
      ]
    },
    {
      "name": "Object_16",
      "primitives": [
        {
          "attributes": {
            "NORMAL": 65,
            "POSITION": 64,
            "TEXCOORD_0": 66
          },
          "indices": 67,
          "material": 10,
          "mode": 4
        }
      ]
    },
    {
      "name": "Object_17",
      "primitives": [
        {
          "attributes": {
            "NORMAL": 69,
            "POSITION": 68,
            "TEXCOORD_0": 70
          },
          "indices": 71,
          "material": 5,
          "mode": 4
        }
      ]
    },
    {
      "name": "Object_18",
      "primitives": [
        {
          "attributes": {
            "NORMAL": 73,
            "POSITION": 72,
            "TEXCOORD_0": 74
          },
          "indices": 75,
          "material": 6,
          "mode": 4
        }
      ]
    },
    {
      "name": "Object_19",
      "primitives": [
        {
          "attributes": {
            "NORMAL": 77,
            "POSITION": 76,
            "TEXCOORD_0": 78
          },
          "indices": 79,
          "material": 7,
          "mode": 4
        }
      ]
    },
    {
      "name": "Object_20",
      "primitives": [
        {
          "attributes": {
            "NORMAL": 81,
            "POSITION": 80,
            "TEXCOORD_0": 82
          },
          "indices": 83,
          "material": 8,
          "mode": 4
        }
      ]
    },
    {
      "name": "Object_21",
      "primitives": [
        {
          "attributes": {
            "NORMAL": 85,
            "POSITION": 84,
            "TEXCOORD_0": 86
          },
          "indices": 87,
          "material": 9,
          "mode": 4
        }
      ]
    },
    {
      "name": "Object_22",
      "primitives": [
        {
          "attributes": {
            "NORMAL": 89,
            "POSITION": 88,
            "TEXCOORD_0": 90
          },
          "indices": 91,
          "material": 10,
          "mode": 4
        }
      ]
    },
    {
      "name": "Object_23",
      "primitives": [
        {
          "attributes": {
            "NORMAL": 93,
            "POSITION": 92,
            "TEXCOORD_0": 94
          },
          "indices": 95,
          "material": 11,
          "mode": 4
        }
      ]
    }
  ],
  "nodes": [
    {
      "children": [
        1
      ],
      "matrix": [
        1.0,
        0.0,
        0.0,
        0.0,
        0.0,
        2.220446049250313e-16,
        -1.0,
        0.0,
        0.0,
        1.0,
        2.220446049250313e-16,
        0.0,
        0.0,
        0.0,
        0.0,
        1.0
      ],
      "name": "Sketchfab_model"
    },
    {
      "children": [
        2
      ],
      "name": "root"
    },
    {
      "children": [
        3,
        6,
        8,
        10,
        12,
        14,
        16,
        18,
        20,
        22,
        24,
        26,
        28,
        30,
        32,
        34,
        36,
        38,
        40,
        42,
        44,
        46,
        48
      ],
      "matrix": [
        1.0,
        0.0,
        0.0,
        0.0,
        0.0,
        2.220446049250313e-16,
        1.0,
        0.0,
        0.0,
        -1.0,
        2.220446049250313e-16,
        0.0,
        0.0,
        0.0,
        0.0,
        1.0
      ],
      "name": "GLTF_SceneRootNode"
    },
    {
      "children": [
        4,
        5
      ],
      "matrix": [
        1.0,
        0.0,
        0.0,
        0.0,
        0.0,
        1.5999342203140259,
        0.0,
        0.0,
        0.0,
        0.0,
        0.43766576051712036,
        0.0,
        0.0,
        1.8317556381225586,
        -0.37363505363464355,
        1.0
      ],
      "name": "Cube_0"
    },
    {
      "mesh": 0,
      "name": "Object_4"
    },
    {
      "mesh": 1,
      "name": "Object_5"
    },
    {
      "children": [
        7
      ],
      "matrix": [
        0.019110048189759254,
        0.0,
        0.0,
        0.0,
        0.0,
        0.1026904359459877,
        0.0,
        0.0,
        0.0,
        0.0,
        0.019110048189759254,
        0.0,
        -0.7700254917144775,
        1.8317556381225586,
        0.49818944931030273,
        1.0
      ],
      "name": "Cylinder.001_1"
    },
    {
      "mesh": 2,
      "name": "Object_7"
    },
    {
      "children": [
        9
      ],
      "matrix": [
        0.019110048189759254,
        0.0,
        0.0,
        0.0,
        0.0,
        0.1026904359459877,
        0.0,
        0.0,
        0.0,
        0.0,
        0.019110048189759254,
        0.0,
        0.17414498329162598,
        1.8317556381225586,
        0.49818944931030273,
        1.0
      ],
      "name": "Cylinder.003_2"
    },
    {
      "mesh": 3,
      "name": "Object_9"
    },
    {
      "children": [
        11
      ],
      "matrix": [
        0.06820445507764816,
        0.0,
        0.0,
        0.0,
        0.0,
        0.06820445507764816,
        0.0,
        0.0,
        0.0,
        0.0,
        0.06820445507764816,
        0.0,
        0.17723090946674347,
        1.979216456413269,
        0.49825000762939453,
        1.0
      ],
      "name": "Sphere_3"
    },
    {
      "mesh": 4,
      "name": "Object_11"
    },
    {
      "children": [
        13
      ],
      "matrix": [
        0.06820445507764816,
        0.0,
        0.0,
        0.0,
        0.0,
        0.06820445507764816,
        0.0,
        0.0,
        0.0,
        0.0,
        0.06820445507764816,
        0.0,
        -0.7699998617172241,
        1.979216456413269,
        0.49825000762939453,
        1.0
      ],
      "name": "Sphere.001_4"
    },
    {
      "mesh": 5,
      "name": "Object_13"
    },
    {
      "children": [
        15
      ],
      "matrix": [
        0.08404209464788437,
        0.0,
        0.0,
        0.0,
        0.0,
        0.08404209464788437,
        0.0,
        0.0,
        0.0,
        0.0,
        0.08404209464788437,
        0.0,
        0.1709073781967163,
        1.7093104124069214,
        0.49825000762939453,
        1.0
      ],
      "name": "Sphere.002_5"
    },
    {
      "mesh": 6,
      "name": "Object_15"
    },
    {
      "children": [
        17
      ],
      "matrix": [
        0.08404209464788437,
        0.0,
        0.0,
        0.0,
        0.0,
        0.08404209464788437,
        0.0,
        0.0,
        0.0,
        0.0,
        0.08404209464788437,
        0.0,
        -0.7702593207359314,
        1.7093104124069214,
        0.49825000762939453,
        1.0
      ],
      "name": "Sphere.003_6"
    },
    {
      "mesh": 7,
      "name": "Object_17"
    },
    {
      "children": [
        19
      ],
      "matrix": [
        0.061907414346933365,
        0.0,
        0.0,
        0.0,
        0.0,
        0.011474983919953921,
        0.0005423826307226274,
        0.0,
        0.0,
        -0.002922885564970666,
        0.06183838301240899,
        0.0,
        -0.3776962161064148,
        1.7863152027130127,
        0.5409221649169922,
        1.0
      ],
      "name": "Cylinder.012_7"
    },
    {
      "mesh": 8,
      "name": "Object_19"
    },
    {
      "children": [
        21
      ],
      "matrix": [
        0.23338986933231354,
        0.0,
        0.0,
        0.0,
        0.0,
        0.2686930298805237,
        0.0,
        0.0,
        0.0,
        0.0,
        0.15994448959827423,
        0.0,
        -0.281749963760376,
        0.6051604747772217,
        0.2184288501739502,
        1.0
      ],
      "name": "Cube.001_8"
    },
    {
      "mesh": 9,
      "name": "Object_21"
    },
    {
      "children": [
        23
      ],
      "matrix": [
        0.10872139781713486,
        0.0,
        0.0,
        0.0,
        0.0,
        0.11108940094709396,
        0.0,
        0.0,
        0.0,
        0.0,
        0.15994448959827423,
        0.0,
        -0.36517077684402466,
        0.7075405120849609,
        0.24497175216674805,
        1.0
      ],
      "name": "Cube.002_9"
    },
    {
      "mesh": 10,
      "name": "Object_23"
    },
    {
      "children": [
        25
      ],
      "matrix": [
        0.10872139781713486,
        0.0,
        0.0,
        0.0,
        0.0,
        0.025049354881048203,
        0.0,
        0.0,
        0.0,
        0.0,
        0.15994448959827423,
        0.0,
        -0.36517077684402466,
        0.5103641748428345,
        0.24497175216674805,
        1.0
      ],
      "name": "Cube.003_10"
    },
    {
      "mesh": 11,
      "name": "Object_25"
    },
    {
      "children": [
        27
      ],
      "matrix": [
        0.061907414346933365,
        0.0,
        0.0,
        0.0,
        0.0,
        0.011474983919953921,
        0.0005423826307226274,
        0.0,
        0.0,
        -0.002922885564970666,
        0.06183838301240899,
        0.0,
        -0.501509964466095,
        1.7863152027130127,
        0.611824095249176,
        1.0
      ],
      "name": "Cylinder.008_11"
    },
    {
      "mesh": 12,
      "name": "Object_27"
    },
    {
      "children": [
        29
      ],
      "matrix": [
        0.061907414346933365,
        0.0,
        0.0,
        0.0,
        0.0,
        0.011474983919953921,
        0.0005423826307226274,
        0.0,
        0.0,
        -0.002922885564970666,
        0.06183838301240899,
        0.0,
        -0.5011866092681885,
        1.7863152027130127,
        0.4668455719947815,
        1.0
      ],
      "name": "Cylinder.009_12"
    },
    {
      "mesh": 13,
      "name": "Object_29"
    },
    {
      "children": [
        31
      ],
      "matrix": [
        0.061907414346933365,
        0.0,
        0.0,
        0.0,
        0.0,
        0.011474983919953921,
        0.0005423826307226274,
        0.0,
        0.0,
        -0.002922885564970666,
        0.06183838301240899,
        0.0,
        -0.37699073553085327,
        1.7863152027130127,
        0.395561546087265,
        1.0
      ],
      "name": "Cylinder.010_13"
    },
    {
      "mesh": 14,
      "name": "Object_31"
    },
    {
      "children": [
        33
      ],
      "matrix": [
        0.061907414346933365,
        0.0,
        0.0,
        0.0,
        0.0,
        0.011474983919953921,
        0.0005423826307226274,
        0.0,
        0.0,
        -0.002922885564970666,
        0.06183838301240899,
        0.0,
        -0.23001335561275482,
        1.7863152027130127,
        0.395561546087265,
        1.0
      ],
      "name": "Cylinder.011_14"
    },
    {
      "mesh": 15,
      "name": "Object_33"
    },
    {
      "children": [
        35
      ],
      "matrix": [
        0.061907414346933365,
        0.0,
        0.0,
        0.0,
        0.0,
        0.011474983919953921,
        0.0005423826307226274,
        0.0,
        0.0,
        -0.002922885564970666,
        0.06183838301240899,
        0.0,
        -0.22927847504615784,
        1.7863152027130127,
        0.5410691499710083,
        1.0
      ],
      "name": "Cylinder.013_15"
    },
    {
      "mesh": 16,
      "name": "Object_35"
    },
    {
      "children": [
        37
      ],
      "matrix": [
        0.061907414346933365,
        0.0,
        0.0,
        0.0,
        0.0,
        0.011474983919953921,
        0.0005423826307226274,
        0.0,
        0.0,
        -0.002922885564970666,
        0.06183838301240899,
        0.0,
        0.5571017265319824,
        1.7863152027130127,
        0.5409221649169922,
        1.0
      ],
      "name": "Cylinder.002_16"
    },
    {
      "mesh": 17,
      "name": "Object_37"
    },
    {
      "children": [
        39
      ],
      "matrix": [
        0.061907414346933365,
        0.0,
        0.0,
        0.0,
        0.0,
        0.011474983919953921,
        0.0005423826307226274,
        0.0,
        0.0,
        -0.002922885564970666,
        0.06183838301240899,
        0.0,
        0.43328797817230225,
        1.7863152027130127,
        0.611824095249176,
        1.0
      ],
      "name": "Cylinder.004_17"
    },
    {
      "mesh": 18,
      "name": "Object_39"
    },
    {
      "children": [
        41
      ],
      "matrix": [
        0.061907414346933365,
        0.0,
        0.0,
        0.0,
        0.0,
        0.011474983919953921,
        0.0005423826307226274,
        0.0,
        0.0,
        -0.002922885564970666,
        0.06183838301240899,
        0.0,
        0.43361133337020874,
        1.7863152027130127,
        0.4668455719947815,
        1.0
      ],
      "name": "Cylinder.005_18"
    },
    {
      "mesh": 19,
      "name": "Object_41"
    },
    {
      "children": [
        43
      ],
      "matrix": [
        0.061907414346933365,
        0.0,
        0.0,
        0.0,
        0.0,
        0.011474983919953921,
        0.0005423826307226274,
        0.0,
        0.0,
        -0.002922885564970666,
        0.06183838301240899,
        0.0,
        0.557807207107544,
        1.7863152027130127,
        0.395561546087265,
        1.0
      ],
      "name": "Cylinder.006_19"
    },
    {
      "mesh": 20,
      "name": "Object_43"
    },
    {
      "children": [
        45
      ],
      "matrix": [
        0.061907414346933365,
        0.0,
        0.0,
        0.0,
        0.0,
        0.011474983919953921,
        0.0005423826307226274,
        0.0,
        0.0,
        -0.002922885564970666,
        0.06183838301240899,
        0.0,
        0.7047845721244812,
        1.7863152027130127,
        0.395561546087265,
        1.0
      ],
      "name": "Cylinder.007_20"
    },
    {
      "mesh": 21,
      "name": "Object_45"
    },
    {
      "children": [
        47
      ],
      "matrix": [
        0.061907414346933365,
        0.0,
        0.0,
        0.0,
        0.0,
        0.011474983919953921,
        0.0005423826307226274,
        0.0,
        0.0,
        -0.002922885564970666,
        0.06183838301240899,
        0.0,
        0.705519437789917,
        1.7863152027130127,
        0.5410691499710083,
        1.0
      ],
      "name": "Cylinder.014_21"
    },
    {
      "mesh": 22,
      "name": "Object_47"
    },
    {
      "children": [
        49
      ],
      "matrix": [
        1.0,
        0.0,
        0.0,
        0.0,
        0.0,
        1.5999342203140259,
        0.0,
        0.0,
        0.0,
        0.0,
        0.43766576051712036,
        0.0,
        0.0,
        1.8317556381225586,
        -0.37363505363464355,
        1.0
      ],
      "name": "Cube.004_22"
    },
    {
      "mesh": 23,
      "name": "Object_49"
    }
  ],
  "scene": 0,
  "scenes": [
    {
      "name": "Sketchfab_Scene",
      "nodes": [
        0
      ]
    }
  ]
}
