{
  "accessors": [
    {
      "bufferView": 2,
      "componentType": 5126,
      "count": 139,
      "max": [
        1.3579182624816895,
        2.6617844104766846,
        1.0
      ],
      "min": [
        -1.0,
        -0.8451882004737854,
        -1.0
      ],
      "type": "VEC3"
    },
    {
      "bufferView": 2,
      "byteOffset": 1668,
      "componentType": 5126,
      "count": 139,
      "max": [
        0.9651068449020386,
        0.958111047744751,
        1.0
      ],
      "min": [
        -1.0,
        -1.0,
        -1.0
      ],
      "type": "VEC3"
    },
    {
      "bufferView": 1,
      "componentType": 5126,
      "count": 139,
      "max": [
        0.875,
        1.0
      ],
      "min": [
        0.125,
        0.0
      ],
      "type": "VEC2"
    },
    {
      "bufferView": 0,
      "componentType": 5125,
      "count": 300,
      "type": "SCALAR"
    },
    {
      "bufferView": 2,
      "byteOffset": 3336,
      "componentType": 5126,
      "count": 89,
      "max": [
        0.5746891498565674,
        4.781363010406494,
        0.665570080280304
      ],
      "min": [
        -0.4160762131214142,
        0.7130351066589355,
        -0.6721848249435425
      ],
      "type": "VEC3"
    },
    {
      "bufferView": 2,
      "byteOffset": 4404,
      "componentType": 5126,
      "count": 89,
      "max": [
        0.9999986290931702,
        0.3804188668727875,
        1.0
      ],
      "min": [
        -0.9999991059303284,
        -0.9638400673866272,
        -1.0
      ],
      "type": "VEC3"
    },
    {
      "bufferView": 1,
      "byteOffset": 1112,
      "componentType": 5126,
      "count": 89,
      "max": [
        0.875,
        0.7089248895645142
      ],
      "min": [
        0.625,
        0.04107509180903435
      ],
      "type": "VEC2"
    },
    {
      "bufferView": 0,
      "byteOffset": 1200,
      "componentType": 5125,
      "count": 192,
      "type": "SCALAR"
    },
    {
      "bufferView": 2,
      "byteOffset": 5472,
      "componentType": 5126,
      "count": 1468,
      "max": [
        1.2200000286102295,
        0.6930716633796692,
        1.2200000286102295
      ],
      "min": [
        -1.2200000286102295,
        -0.14000000059604645,
        -1.2200000286102295
      ],
      "type": "VEC3"
    },
    {
      "bufferView": 2,
      "byteOffset": 23088,
      "componentType": 5126,
      "count": 1468,
      "max": [
        1.0,
        1.0,
        1.0
      ],
      "min": [
        -1.0,
        -1.0,
        -1.0
      ],
      "type": "VEC3"
    },
    {
      "bufferView": 1,
      "byteOffset": 1824,
      "componentType": 5126,
      "count": 1468,
      "max": [
        1.0,
        0.994987964630127
      ],
      "min": [
        -2.2189972526120982e-08,
        -2.8709923327596698e-08
      ],
      "type": "VEC2"
    },
    {
      "bufferView": 1,
      "byteOffset": 13568,
      "componentType": 5126,
      "count": 1468,
      "max": [
        0.0,
        0.0
      ],
      "min": [
        0.0,
        0.0
      ],
      "type": "VEC2"
    },
    {
      "bufferView": 0,
      "byteOffset": 1968,
      "componentType": 5125,
      "count": 4488,
      "type": "SCALAR"
    },
    {
      "bufferView": 2,
      "byteOffset": 40704,
      "componentType": 5126,
      "count": 296,
      "max": [
        0.32609832286834717,
        -0.06957574933767319,
        0.3260394334793091
      ],
      "min": [
        -0.32603925466537476,
        -0.16946563124656677,
        -0.32609814405441284
      ],
      "type": "VEC3"
    },
    {
      "bufferView": 2,
      "byteOffset": 44256,
      "componentType": 5126,
      "count": 296,
      "max": [
        0.9248051047325134,
        0.9841492176055908,
        0.9248049259185791
      ],
      "min": [
        -0.9248051047325134,
        -1.0,
        -0.9248049259185791
      ],
      "type": "VEC3"
    },
    {
      "bufferView": 1,
      "byteOffset": 25312,
      "componentType": 5126,
      "count": 296,
      "max": [
        0.8635313510894775,
        0.7711824178695679
      ],
      "min": [
        0.47231408953666687,
        0.5037239789962769
      ],
      "type": "VEC2"
    },
    {
      "bufferView": 1,
      "byteOffset": 27680,
      "componentType": 5126,
      "count": 296,
      "max": [
        0.0,
        0.0
      ],
      "min": [
        0.0,
        0.0
      ],
      "type": "VEC2"
    },
    {
      "bufferView": 0,
      "byteOffset": 19920,
      "componentType": 5125,
      "count": 948,
      "type": "SCALAR"
    },
    {
      "bufferView": 2,
      "byteOffset": 47808,
      "componentType": 5126,
      "count": 1267,
      "max": [
        2.314793348312378,
        17.439626693725586,
        0.9412904977798462
      ],
      "min": [
        -1.0282174348831177,
        0.06379431486129761,
        -0.9412904977798462
      ],
      "type": "VEC3"
    },
    {
      "bufferView": 2,
      "byteOffset": 63012,
      "componentType": 5126,
      "count": 1267,
      "max": [
        1.0,
        1.0,
        1.0
      ],
      "min": [
        -1.0,
        -1.0,
        -1.0
      ],
      "type": "VEC3"
    },
    {
      "bufferView": 1,
      "byteOffset": 30048,
      "componentType": 5126,
      "count": 1267,
      "max": [
        0.875,
        0.6250000596046448
      ],
      "min": [
        0.0,
        0.0
      ],
      "type": "VEC2"
    },
    {
      "bufferView": 0,
      "byteOffset": 23712,
      "componentType": 5125,
      "count": 3582,
      "type": "SCALAR"
    },
    {
      "bufferView": 2,
      "byteOffset": 78216,
      "componentType": 5126,
      "count": 244,
      "max": [
        1.229543924331665,
        17.439626693725586,
        1.0360825061798096
      ],
      "min": [
        -1.0282174348831177,
        5.973970413208008,
        -1.0360825061798096
      ],
      "type": "VEC3"
    },
    {
      "bufferView": 2,
      "byteOffset": 81144,
      "componentType": 5126,
      "count": 244,
      "max": [
        0.9998717904090881,
        1.0,
        1.0
      ],
      "min": [
        -0.9999850988388062,
        -0.8079564571380615,
        -1.0
      ],
      "type": "VEC3"
    },
    {
      "bufferView": 1,
      "byteOffset": 40184,
      "componentType": 5126,
      "count": 244,
      "max": [
        0.8484247326850891,
        0.5
      ],
      "min": [
        0.6249999403953552,
        0.2765751779079437
      ],
      "type": "VEC2"
    },
    {
      "bufferView": 0,
      "byteOffset": 38040,
      "componentType": 5125,
      "count": 768,
      "type": "SCALAR"
    },
    {
      "bufferView": 2,
      "byteOffset": 84072,
      "componentType": 5126,
      "count": 8,
      "max": [
        0.2730352282524109,
        15.50381088256836,
        0.8479246497154236
      ],
      "min": [
        0.2730352282524109,
        10.016942977905273,
        -0.8479246497154236
      ],
      "type": "VEC3"
    },
    {
      "bufferView": 2,
      "byteOffset": 84168,
      "componentType": 5126,
      "count": 8,
      "max": [
        1.0,
        0.0,
        -0.0
      ],
      "min": [
        1.0,
        0.0,
        -0.0
      ],
      "type": "VEC3"
    },
    {
      "bufferView": 1,
      "byteOffset": 42136,
      "componentType": 5126,
      "count": 8,
      "max": [
        0.625,
        0.75
      ],
      "min": [
        0.375,
        0.5
      ],
      "type": "VEC2"
    },
    {
      "bufferView": 0,
      "byteOffset": 41112,
      "componentType": 5125,
      "count": 12,
      "type": "SCALAR"
    },
    {
      "bufferView": 2,
      "byteOffset": 84264,
      "componentType": 5126,
      "count": 88,
      "max": [
        0.3437851667404175,
        15.81221866607666,
        0.9381024837493896
      ],
      "min": [
        -0.3677525520324707,
        9.708535194396973,
        -0.9381024837493896
      ],
      "type": "VEC3"
    },
    {
      "bufferView": 2,
      "byteOffset": 85320,
      "componentType": 5126,
      "count": 88,
      "max": [
        1.0,
        1.0,
        1.0
      ],
      "min": [
        -1.0,
        -1.0,
        -1.0
      ],
      "type": "VEC3"
    },
    {
      "bufferView": 1,
      "byteOffset": 42200,
      "componentType": 5126,
      "count": 88,
      "max": [
        0.875,
        1.0
      ],
      "min": [
        0.125,
        0.0
      ],
      "type": "VEC2"
    },
    {
      "bufferView": 0,
      "byteOffset": 41160,
      "componentType": 5125,
      "count": 156,
      "type": "SCALAR"
    },
    {
      "bufferView": 2,
      "byteOffset": 86376,
      "componentType": 5126,
      "count": 1196,
      "max": [
        8.349312782287598,
        4.7159929275512695,
        14.136966705322266
      ],
      "min": [
        -5.465712547302246,
        -4.180145740509033,
        -14.243829727172852
      ],
      "type": "VEC3"
    },
    {
      "bufferView": 2,
      "byteOffset": 100728,
      "componentType": 5126,
      "count": 1196,
      "max": [
        1.0,
        1.0,
        1.0
      ],
      "min": [
        -1.0,
        -1.0,
        -1.0
      ],
      "type": "VEC3"
    },
    {
      "bufferView": 1,
      "byteOffset": 42904,
      "componentType": 5126,
      "count": 1196,
      "max": [
        0.875,
        1.0
      ],
      "min": [
        0.125,
        0.0
      ],
      "type": "VEC2"
    },
    {
      "bufferView": 0,
      "byteOffset": 41784,
      "componentType": 5125,
      "count": 3819,
      "type": "SCALAR"
    },
    {
      "bufferView": 2,
      "byteOffset": 115080,
      "componentType": 5126,
      "count": 44,
      "max": [
        5.080192565917969,
        2.0059127807617188,
        13.47076416015625
      ],
      "min": [
        2.1056885719299316,
        -3.81103515625,
        -11.30129623413086
      ],
      "type": "VEC3"
    },
    {
      "bufferView": 2,
      "byteOffset": 115608,
      "componentType": 5126,
      "count": 44,
      "max": [
        0.9982036352157593,
        0.9999983906745911,
        0.9999864101409912
      ],
      "min": [
        -1.0,
        -0.9999868869781494,
        -0.9999999403953552
      ],
      "type": "VEC3"
    },
    {
      "bufferView": 1,
      "byteOffset": 52472,
      "componentType": 5126,
      "count": 44,
      "max": [
        0.5254721641540527,
        0.6259323954582214
      ],
      "min": [
        0.385945200920105,
        0.5075836777687073
      ],
      "type": "VEC2"
    },
    {
      "bufferView": 0,
      "byteOffset": 57060,
      "componentType": 5125,
      "count": 78,
      "type": "SCALAR"
    },
    {
      "bufferView": 2,
      "byteOffset": 116136,
      "componentType": 5126,
      "count": 48,
      "max": [
        0.7888426780700684,
        2.9696145057678223,
        7.00512170791626
      ],
      "min": [
        0.7888426780700684,
        1.0136390924453735,
        -7.111984729766846
      ],
      "type": "VEC3"
    },
    {
      "bufferView": 2,
      "byteOffset": 116712,
      "componentType": 5126,
      "count": 48,
      "max": [
        1.0,
        0.0,
        1.3662938158631732e-07
      ],
      "min": [
        -1.0,
        0.0,
        1.169940944123482e-08
      ],
      "type": "VEC3"
    },
    {
      "bufferView": 1,
      "byteOffset": 52824,
      "componentType": 5126,
      "count": 48,
      "max": [
        2.7618257999420166,
        1.981799840927124
      ],
      "min": [
        -1.6220977306365967,
        -0.6926509737968445
      ],
      "type": "VEC2"
    },
    {
      "bufferView": 0,
      "byteOffset": 57372,
      "componentType": 5125,
      "count": 120,
      "type": "SCALAR"
    },
    {
      "bufferView": 2,
      "byteOffset": 117288,
      "componentType": 5126,
      "count": 19,
      "max": [
        1.0657641887664795,
        2.639620780944824,
        13.473596572875977
      ],
      "min": [
        1.0657641887664795,
        -1.1366550922393799,
        5.958431720733643
      ],
      "type": "VEC3"
    },
    {
      "bufferView": 2,
      "byteOffset": 117516,
      "componentType": 5126,
      "count": 19,
      "max": [
        -1.0,
        0.0,
        5.913182832273378e-09
      ],
      "min": [
        -1.0,
        0.0,
        5.913182832273378e-09
      ],
      "type": "VEC3"
    },
    {
      "bufferView": 1,
      "byteOffset": 53208,
      "componentType": 5126,
      "count": 19,
      "max": [
        0.8391134142875671,
        0.731482207775116
      ],
      "min": [
        0.06788308918476105,
        0.44631460309028625
      ],
      "type": "VEC2"
    },
    {
      "bufferView": 0,
      "byteOffset": 57852,
      "componentType": 5125,
      "count": 51,
      "type": "SCALAR"
    },
    {
      "bufferView": 2,
      "byteOffset": 117744,
      "componentType": 5126,
      "count": 4,
      "max": [
        2.0574426651000977,
        -1.1320087909698486,
        13.614828109741211
      ],
      "min": [
        1.6175141334533691,
        -2.027158260345459,
        5.975671291351318
      ],
      "type": "VEC3"
    },
    {
      "bufferView": 2,
      "byteOffset": 117792,
      "componentType": 5126,
      "count": 4,
      "max": [
        -0.8941910862922668,
        -0.307300329208374,
        -0.0010120903607457876
      ],
      "min": [
        -0.951612114906311,
        -0.44768011569976807,
        -0.0021914669778198004
      ],
      "type": "VEC3"
    },
    {
      "bufferView": 1,
      "byteOffset": 53360,
      "componentType": 5126,
      "count": 4,
      "max": [
        0.5075089931488037,
        0.359828382730484
      ],
      "min": [
        0.04980246350169182,
        0.30524227023124695
      ],
      "type": "VEC2"
    },
    {
      "bufferView": 0,
      "byteOffset": 58056,
      "componentType": 5125,
      "count": 6,
      "type": "SCALAR"
    },
    {
      "bufferView": 2,
      "byteOffset": 117840,
      "componentType": 5126,
      "count": 104,
      "max": [
        7.177023887634277,
        1.6941847801208496,
        -9.526631355285645
      ],
      "min": [
        2.7514431476593018,
        -0.29200172424316406,
        -12.847395896911621
      ],
      "type": "VEC3"
    },
    {
      "bufferView": 2,
      "byteOffset": 119088,
      "componentType": 5126,
      "count": 104,
      "max": [
        0.9324085712432861,
        0.9992653131484985,
        0.9474651217460632
      ],
      "min": [
        -0.9324073195457458,
        0.3189834952354431,
        -0.947371244430542
      ],
      "type": "VEC3"
    },
    {
      "bufferView": 1,
      "byteOffset": 53392,
      "componentType": 5126,
      "count": 104,
      "max": [
        0.5254721641540527,
        0.6047919392585754
      ],
      "min": [
        0.5154154300689697,
        0.5312499403953552
      ],
      "type": "VEC2"
    },
    {
      "bufferView": 0,
      "byteOffset": 58080,
      "componentType": 5125,
      "count": 264,
      "type": "SCALAR"
    },
    {
      "bufferView": 2,
      "byteOffset": 120336,
      "componentType": 5126,
      "count": 1056,
      "max": [
        2.4985456466674805,
        3.4459962844848633,
        12.80975341796875
      ],
      "min": [
        -0.5858831405639648,
        -3.617983818054199,
        -4.018353462219238
      ],
      "type": "VEC3"
    },
    {
      "bufferView": 2,
      "byteOffset": 133008,
      "componentType": 5126,
      "count": 1056,
      "max": [
        1.0,
        0.9893680214881897,
        0.9955188035964966
      ],
      "min": [
        -1.0,
        -0.9893679022789001,
        -0.9955188035964966
      ],
      "type": "VEC3"
    },
    {
      "bufferView": 1,
      "byteOffset": 54224,
      "componentType": 5126,
      "count": 1056,
      "max": [
        0.875,
        1.0
      ],
      "min": [
        0.0,
        0.0
      ],
      "type": "VEC2"
    },
    {
      "bufferView": 0,
      "byteOffset": 59136,
      "componentType": 5125,
      "count": 1680,
      "type": "SCALAR"
    },
    {
      "bufferView": 2,
      "byteOffset": 145680,
      "componentType": 5126,
      "count": 16,
      "max": [
        -0.487044095993042,
        3.192465305328369,
        0.7384756803512573
      ],
      "min": [
        -0.48704415559768677,
        1.5621238946914673,
        -0.8918657302856445
      ],
      "type": "VEC3"
    },
    {
      "bufferView": 2,
      "byteOffset": 145872,
      "componentType": 5126,
      "count": 16,
      "max": [
        -1.0,
        4.2451706150359314e-08,
        1.4649518043086118e-08
      ],
      "min": [
        -1.0,
        4.2451706150359314e-08,
        1.4649518043086118e-08
      ],
      "type": "VEC3"
    },
    {
      "bufferView": 1,
      "byteOffset": 62672,
      "componentType": 5126,
      "count": 16,
      "max": [
        0.5964154005050659,
        0.7965021133422852
      ],
      "min": [
        0.43566057085990906,
        0.580251157283783
      ],
      "type": "VEC2"
    },
    {
      "bufferView": 0,
      "byteOffset": 65856,
      "componentType": 5125,
      "count": 42,
      "type": "SCALAR"
    },
    {
      "bufferView": 2,
      "byteOffset": 146064,
      "componentType": 5126,
      "count": 16,
      "max": [
        -0.487044095993042,
        2.115604877471924,
        3.0940170288085938
      ],
      "min": [
        -0.48704415559768677,
        0.485263466835022,
        1.4636754989624023
      ],
      "type": "VEC3"
    },
    {
      "bufferView": 2,
      "byteOffset": 146256,
      "componentType": 5126,
      "count": 16,
      "max": [
        -1.0,
        4.2451702597645635e-08,
        -1.4649518043086118e-08
      ],
      "min": [
        -1.0,
        4.2451702597645635e-08,
        -1.4649518043086118e-08
      ],
      "type": "VEC3"
    },
    {
      "bufferView": 1,
      "byteOffset": 62800,
      "componentType": 5126,
      "count": 16,
      "max": [
        0.3704845607280731,
        0.6547196507453918
      ],
      "min": [
        0.2036844789981842,
        0.4346880614757538
      ],
      "type": "VEC2"
    },
    {
      "bufferView": 0,
      "byteOffset": 66024,
      "componentType": 5125,
      "count": 42,
      "type": "SCALAR"
    },
    {
      "bufferView": 2,
      "byteOffset": 146448,
      "componentType": 5126,
      "count": 16,
      "max": [
        -0.45549583435058594,
        2.533867359161377,
        -1.7146673202514648
      ],
      "min": [
        -0.4554959237575531,
        0.5402105450630188,
        -3.7083239555358887
      ],
      "type": "VEC3"
    },
    {
      "bufferView": 2,
      "byteOffset": 146640,
      "componentType": 5126,
      "count": 16,
      "max": [
        -1.0,
        4.535797870630631e-08,
        -9.79669856349119e-09
      ],
      "min": [
        -1.0,
        4.535797870630631e-08,
        -9.79669856349119e-09
      ],
      "type": "VEC3"
    },
    {
      "bufferView": 1,
      "byteOffset": 62928,
      "componentType": 5126,
      "count": 16,
      "max": [
        0.8884069919586182,
        0.7263085246086121
      ],
      "min": [
        0.6633945107460022,
        0.4304545223712921
      ],
      "type": "VEC2"
    },
    {
      "bufferView": 0,
      "byteOffset": 66192,
      "componentType": 5125,
      "count": 42,
      "type": "SCALAR"
    },
    {
      "bufferView": 2,
      "byteOffset": 146832,
      "componentType": 5126,
      "count": 20,
      "max": [
        2.644683599472046,
        -2.464806079864502,
        10.903228759765625
      ],
      "min": [
        2.496004343032837,
        -3.5187525749206543,
        10.168502807617188
      ],
      "type": "VEC3"
    },
    {
      "bufferView": 2,
      "byteOffset": 147072,
      "componentType": 5126,
      "count": 20,
      "max": [
        1.0,
        1.0,
        1.0
      ],
      "min": [
        0.0,
        -1.0,
        -1.0
      ],
      "type": "VEC3"
    },
    {
      "bufferView": 1,
      "byteOffset": 63056,
      "componentType": 5126,
      "count": 20,
      "max": [
        0.875,
        1.0
      ],
      "min": [
        0.125,
        0.25
      ],
      "type": "VEC2"
    },
    {
      "bufferView": 0,
      "byteOffset": 66360,
      "componentType": 5125,
      "count": 30,
      "type": "SCALAR"
    },
    {
      "bufferView": 2,
      "byteOffset": 147312,
      "componentType": 5126,
      "count": 20,
      "max": [
        2.644683599472046,
        -2.464806079864502,
        9.750932693481445
      ],
      "min": [
        2.496004343032837,
        -3.5187525749206543,
        9.016206741333008
      ],
      "type": "VEC3"
    },
    {
      "bufferView": 2,
      "byteOffset": 147552,
      "componentType": 5126,
      "count": 20,
      "max": [
        1.0,
        1.0,
        1.0
      ],
      "min": [
        0.0,
        -1.0,
        -1.0
      ],
      "type": "VEC3"
    },
    {
      "bufferView": 1,
      "byteOffset": 63216,
      "componentType": 5126,
      "count": 20,
      "max": [
        0.875,
        1.0
      ],
      "min": [
        0.125,
        0.25
      ],
      "type": "VEC2"
    },
    {
      "bufferView": 0,
      "byteOffset": 66480,
      "componentType": 5125,
      "count": 30,
      "type": "SCALAR"
    },
    {
      "bufferView": 2,
      "byteOffset": 147792,
      "componentType": 5126,
      "count": 20,
      "max": [
        2.644683599472046,
        -2.464806079864502,
        8.598633766174316
      ],
      "min": [
        2.496004343032837,
        -3.5187525749206543,
        7.863907814025879
      ],
      "type": "VEC3"
    },
    {
      "bufferView": 2,
      "byteOffset": 148032,
      "componentType": 5126,
      "count": 20,
      "max": [
        1.0,
        1.0,
        1.0
      ],
      "min": [
        0.0,
        -1.0,
        -1.0
      ],
      "type": "VEC3"
    },
    {
      "bufferView": 1,
      "byteOffset": 63376,
      "componentType": 5126,
      "count": 20,
      "max": [
        0.875,
        1.0
      ],
      "min": [
        0.125,
        0.25
      ],
      "type": "VEC2"
    },
    {
      "bufferView": 0,
      "byteOffset": 66600,
      "componentType": 5125,
      "count": 30,
      "type": "SCALAR"
    },
    {
      "bufferView": 2,
      "byteOffset": 148272,
      "componentType": 5126,
      "count": 20,
      "max": [
        2.644683599472046,
        -2.464806079864502,
        7.446335315704346
      ],
      "min": [
        2.496004343032837,
        -3.5187525749206543,
        6.711609363555908
      ],
      "type": "VEC3"
    },
    {
      "bufferView": 2,
      "byteOffset": 148512,
      "componentType": 5126,
      "count": 20,
      "max": [
        1.0,
        1.0,
        1.0
      ],
      "min": [
        0.0,
        -1.0,
        -1.0
      ],
      "type": "VEC3"
    },
    {
      "bufferView": 1,
      "byteOffset": 63536,
      "componentType": 5126,
      "count": 20,
      "max": [
        0.875,
        1.0
      ],
      "min": [
        0.125,
        0.25
      ],
      "type": "VEC2"
    },
    {
      "bufferView": 0,
      "byteOffset": 66720,
      "componentType": 5125,
      "count": 30,
      "type": "SCALAR"
    },
    {
      "bufferView": 2,
      "byteOffset": 148752,
      "componentType": 5126,
      "count": 160,
      "max": [
        2.65329909324646,
        -2.456937313079834,
        12.728104591369629
      ],
      "min": [
        2.498544454574585,
        -3.5211663246154785,
        11.663874626159668
      ],
      "type": "VEC3"
    },
    {
      "bufferView": 2,
      "byteOffset": 150672,
      "componentType": 5126,
      "count": 160,
      "max": [
        0.0,
        0.9951848387718201,
        0.9951841831207275
      ],
      "min": [
        -1.0,
        -0.9951848387718201,
        -0.9951841831207275
      ],
      "type": "VEC3"
    },
    {
      "bufferView": 1,
      "byteOffset": 63696,
      "componentType": 5126,
      "count": 160,
      "max": [
        0.0,
        0.0
      ],
      "min": [
        0.0,
        0.0
      ],
      "type": "VEC2"
    },
    {
      "bufferView": 0,
      "byteOffset": 66840,
      "componentType": 5125,
      "count": 282,
      "type": "SCALAR"
    },
    {
      "bufferView": 2,
      "byteOffset": 152592,
      "componentType": 5126,
      "count": 52,
      "max": [
        3.9468984603881836,
        1.7835044860839844,
        1.0
      ],
      "min": [
        -2.4324305057525635,
        -1.0,
        -1.0
      ],
      "type": "VEC3"
    },
    {
      "bufferView": 2,
      "byteOffset": 153216,
      "componentType": 5126,
      "count": 52,
      "max": [
        0.03685421124100685,
        0.9999935626983643,
        0.9997625946998596
      ],
      "min": [
        -0.7813053131103516,
        -1.0,
        -0.9997625946998596
      ],
      "type": "VEC3"
    },
    {
      "bufferView": 1,
      "byteOffset": 64976,
      "componentType": 5126,
      "count": 52,
      "max": [
        0.875,
        0.625
      ],
      "min": [
        0.125,
        0.125
      ],
      "type": "VEC2"
    },
    {
      "bufferView": 0,
      "byteOffset": 67968,
      "componentType": 5125,
      "count": 96,
      "type": "SCALAR"
    },
    {
      "bufferView": 2,
      "byteOffset": 153840,
      "componentType": 5126,
      "count": 8,
      "max": [
        3.5763726234436035,
        1.384137749671936,
        0.9149270057678223
      ],
      "min": [
        2.7735109329223633,
        -1.0,
        -0.9149270057678223
      ],
      "type": "VEC3"
    },
    {
      "bufferView": 2,
      "byteOffset": 153936,
      "componentType": 5126,
      "count": 8,
      "max": [
        0.9477071166038513,
        -0.3191416263580322,
        -0.0
      ],
      "min": [
        0.9477070569992065,
        -0.3191416561603546,
        -0.0
      ],
      "type": "VEC3"
    },
    {
      "bufferView": 1,
      "byteOffset": 65392,
      "componentType": 5126,
      "count": 8,
      "max": [
        0.625,
        0.625
      ],
      "min": [
        0.375,
        0.5118139982223511
      ],
      "type": "VEC2"
    },
    {
      "bufferView": 0,
      "byteOffset": 68352,
      "componentType": 5125,
      "count": 12,
      "type": "SCALAR"
    },
    {
      "bufferView": 2,
      "byteOffset": 154032,
      "componentType": 5126,
      "count": 32,
      "max": [
        3.9468984603881836,
        1.7835044860839844,
        1.009439468383789
      ],
      "min": [
        -2.4324305057525635,
        -1.0,
        -1.009439468383789
      ],
      "type": "VEC3"
    },
    {
      "bufferView": 2,
      "byteOffset": 154416,
      "componentType": 5126,
      "count": 32,
      "max": [
        0.9604363441467285,
        0.9999945759773254,
        0.9999942183494568
      ],
      "min": [
        -0.8236687183380127,
        -0.278499573469162,
        -0.9999942183494568
      ],
      "type": "VEC3"
    },
    {
      "bufferView": 1,
      "byteOffset": 65456,
      "componentType": 5126,
      "count": 32,
      "max": [
        0.875,
        0.5102941393852234
      ],
      "min": [
        0.375,
        0.239705890417099
      ],
      "type": "VEC2"
    },
    {
      "bufferView": 0,
      "byteOffset": 68400,
      "componentType": 5125,
      "count": 48,
      "type": "SCALAR"
    },
    {
      "bufferView": 2,
      "byteOffset": 154800,
      "componentType": 5126,
      "count": 515,
      "max": [
        5.409453868865967,
        10.396492004394531,
        3.1634695529937744
      ],
      "min": [
        -4.517864227294922,
        -1.0,
        -3.1634695529937744
      ],
      "type": "VEC3"
    },
    {
      "bufferView": 2,
      "byteOffset": 160980,
      "componentType": 5126,
      "count": 515,
      "max": [
        0.9956414699554443,
        0.974573016166687,
        0.9991047382354736
      ],
      "min": [
        -1.0,
        -1.0,
        -0.9991047382354736
      ],
      "type": "VEC3"
    },
    {
      "bufferView": 1,
      "byteOffset": 65712,
      "componentType": 5126,
      "count": 515,
      "max": [
        0.6874999403953552,
        1.0
      ],
      "min": [
        0.125,
        0.0
      ],
      "type": "VEC2"
    },
    {
      "bufferView": 0,
      "byteOffset": 68592,
      "componentType": 5125,
      "count": 1917,
      "type": "SCALAR"
    },
    {
      "bufferView": 2,
      "byteOffset": 167160,
      "componentType": 5126,
      "count": 288,
      "max": [
        3.8797447681427,
        10.205734252929688,
        2.87632155418396
      ],
      "min": [
        -4.372508525848389,
        -0.08197864890098572,
        -2.87632155418396
      ],
      "type": "VEC3"
    },
    {
      "bufferView": 2,
      "byteOffset": 170616,
      "componentType": 5126,
      "count": 288,
      "max": [
        0.4010207951068878,
        0.9989919662475586,
        1.0
      ],
      "min": [
        -0.9999281167984009,
        -0.9921508431434631,
        -1.0
      ],
      "type": "VEC3"
    },
    {
      "bufferView": 1,
      "byteOffset": 69832,
      "componentType": 5126,
      "count": 288,
      "max": [
        0.875,
        0.75
      ],
      "min": [
        0.6874997019767761,
        0.49999991059303284
      ],
      "type": "VEC2"
    },
    {
      "bufferView": 0,
      "byteOffset": 76260,
      "componentType": 5125,
      "count": 915,
      "type": "SCALAR"
    },
    {
      "bufferView": 2,
      "byteOffset": 174072,
      "componentType": 5126,
      "count": 8,
      "max": [
        3.7733876705169678,
        7.53519344329834,
        2.185542345046997
      ],
      "min": [
        3.1958861351013184,
        6.849137306213379,
        -2.185542345046997
      ],
      "type": "VEC3"
    },
    {
      "bufferView": 2,
      "byteOffset": 174168,
      "componentType": 5126,
      "count": 8,
      "max": [
        -0.868157148361206,
        0.30954474210739136,
        0.38792452216148376
      ],
      "min": [
        -0.8681572079658508,
        0.30954450368881226,
        -0.38792428374290466
      ],
      "type": "VEC3"
    },
    {
      "bufferView": 1,
      "byteOffset": 72136,
      "componentType": 5126,
      "count": 8,
      "max": [
        1.791886329650879,
        1.9763909578323364
      ],
      "min": [
        -0.837691068649292,
        -0.976391077041626
      ],
      "type": "VEC2"
    },
    {
      "bufferView": 0,
      "byteOffset": 79920,
      "componentType": 5125,
      "count": 12,
      "type": "SCALAR"
    },
    {
      "bufferView": 2,
      "byteOffset": 174264,
      "componentType": 5126,
      "count": 20,
      "max": [
        0.6532379388809204,
        16.484821319580078,
        0.936772346496582
      ],
      "min": [
        0.15268385410308838,
        15.787243843078613,
        -0.936772346496582
      ],
      "type": "VEC3"
    },
    {
      "bufferView": 2,
      "byteOffset": 174504,
      "componentType": 5126,
      "count": 20,
      "max": [
        0.0,
        1.0,
        1.0
      ],
      "min": [
        -1.0,
        -1.0,
        -1.0
      ],
      "type": "VEC3"
    },
    {
      "bufferView": 1,
      "byteOffset": 72200,
      "componentType": 5126,
      "count": 20,
      "max": [
        0.875,
        1.0
      ],
      "min": [
        0.125,
        0.0
      ],
      "type": "VEC2"
    },
    {
      "bufferView": 0,
      "byteOffset": 79968,
      "componentType": 5125,
      "count": 30,
      "type": "SCALAR"
    },
    {
      "bufferView": 2,
      "byteOffset": 174744,
      "componentType": 5126,
      "count": 4,
      "max": [
        0.6532379388809204,
        16.484821319580078,
        0.936772346496582
      ],
      "min": [
        0.6051837801933289,
        15.787243843078613,
        -0.936772346496582
      ],
      "type": "VEC3"
    },
    {
      "bufferView": 2,
      "byteOffset": 174792,
      "componentType": 5126,
      "count": 4,
      "max": [
        0.9976357221603394,
        -0.0687243640422821,
        -0.0
      ],
      "min": [
        0.9976357221603394,
        -0.0687243640422821,
        -0.0
      ],
      "type": "VEC3"
    },
    {
      "bufferView": 1,
      "byteOffset": 72360,
      "componentType": 5126,
      "count": 4,
      "max": [
        0.873351514339447,
        0.5935263633728027
      ],
      "min": [
        0.8208923935890198,
        -0.00015532970428466797
      ],
      "type": "VEC2"
    },
    {
      "bufferView": 0,
      "byteOffset": 80088,
      "componentType": 5125,
      "count": 6,
      "type": "SCALAR"
    }
  ],
  "asset": {
    "extras": {
      "author": "Creator20_Guest (https://sketchfab.com/Creator20_Guest)",
      "license": "CC-BY-4.0 (http://creativecommons.org/licenses/by/4.0/)",
      "source": "https://sketchfab.com/3d-models/race-arcade-cabinet-ae9637e2f7d746e2a8c623d1cd02472e",
      "title": "Race Arcade Cabinet"
    },
    "generator": "Sketchfab-15.91.0",
    "version": "2.0"
  },
  "bufferViews": [
    {
      "buffer": 0,
      "byteLength": 80112,
      "name": "floatBufferViews",
      "target": 34963
    },
    {
      "buffer": 0,
      "byteLength": 72392,
      "byteOffset": 80112,
      "byteStride": 8,
      "name": "floatBufferViews",
      "target": 34962
    },
    {
      "buffer": 0,
      "byteLength": 174840,
      "byteOffset": 152504,
      "byteStride": 12,
      "name": "floatBufferViews",
      "target": 34962
    }
  ],
  "buffers": [
    {
      "byteLength": 327344,
      "uri": "scene.bin"
    }
  ],
  "materials": [
    {
      "doubleSided": true,
      "name": "semidark_metal",
      "pbrMetallicRoughness": {
        "baseColorFactor": [
          0.0607192,
          0.0607192,
          0.0607192,
          1.0
        ],
        "metallicFactor": 0.0,
        "roughnessFactor": 0.9868221868249443
      }
    },
    {
      "doubleSided": true,
      "name": "metal",
      "pbrMetallicRoughness": {
        "baseColorFactor": [
          0.8,
          0.8,
          0.8,
          1.0
        ],
        "metallicFactor": 0.0,
        "roughnessFactor": 0.7772373466318747
      }
    },
    {
      "doubleSided": true,
      "name": "black_plastic",
      "pbrMetallicRoughness": {
        "baseColorFactor": [
          0.0188487,
          0.0188487,
          0.0188487,
          1.0
        ],
        "metallicFactor": 0.0,
        "roughnessFactor": 0.9970197588533393
      }
    },
    {
      "doubleSided": true,
      "name": "paint",
      "pbrMetallicRoughness": {
        "baseColorFactor": [
          0.8,
          0.0364558,
          0.167548,
          1.0
        ],
        "metallicFactor": 0.0,
        "roughnessFactor": 0.9534338499867856
      }
    },
    {
      "doubleSided": true,
      "name": "material",
      "pbrMetallicRoughness": {
        "baseColorFactor": [
          0.0,
          0.0,
          0.0,
          1.0
        ],
        "metallicFactor": 0.0
      }
    },
    {
      "doubleSided": true,
      "name": "tv_plastic",
      "pbrMetallicRoughness": {
        "baseColorFactor": [
          0.0203786,
          0.0203786,
          0.0203786,
          1.0
        ],
        "metallicFactor": 0.0,
        "roughnessFactor": 0.9954432065113723
      }
    },
    {
      "doubleSided": true,
      "name": "ctrl_panel",
      "pbrMetallicRoughness": {
        "baseColorFactor": [
          0.00364196,
          0.00364196,
          0.00364196,
          1.0
        ],
        "metallicFactor": 0.0,
        "roughnessFactor": 0.9991856329868665
      }
    },
    {
      "doubleSided": true,
      "name": "speaker_grill",
      "pbrMetallicRoughness": {
        "baseColorFactor": [
          0.8,
          0.8,
          0.8,
          1.0
        ],
        "metallicFactor": 0.0,
        "roughnessFactor": 0.8114381879123512
      }
    },
    {
      "doubleSided": true,
      "name": "instructions",
      "pbrMetallicRoughness": {
        "baseColorFactor": [
          0.8,
          0.8,
          0.8,
          1.0
        ],
        "metallicFactor": 0.0,
        "roughnessFactor": 0.7883398951148328
      }
    },
    {
      "doubleSided": true,
      "name": "start__buttons",
      "pbrMetallicRoughness": {
        "baseColorFactor": [
          0.8,
          0.8,
          0.8,
          1.0
        ],
        "metallicFactor": 0.0,
        "roughnessFactor": 0.7883398951148328
      }
    },
    {
      "doubleSided": true,
      "name": "shift_material",
      "pbrMetallicRoughness": {
        "baseColorFactor": [
          0.0159943,
          0.0159943,
          0.0159943,
          1.0
        ],
        "metallicFactor": 0.0,
        "roughnessFactor": 0.9963255644128748
      }
    },
    {
      "doubleSided": true,
      "name": "deco1",
      "pbrMetallicRoughness": {
        "baseColorFactor": [
          0.8,
          0.8,
          0.8,
          1.0
        ],
        "metallicFactor": 0.0,
        "roughnessFactor": 0.7883398951148328
      }
    },
    {
      "doubleSided": true,
      "name": "deco3",
      "pbrMetallicRoughness": {
        "baseColorFactor": [
          0.8,
          0.8,
          0.8,
          1.0
        ],
        "metallicFactor": 0.0,
        "roughnessFactor": 0.7883398951148328
      }
    },
    {
      "doubleSided": true,
      "name": "deco2",
      "pbrMetallicRoughness": {
        "baseColorFactor": [
          0.8,
          0.8,
          0.8,
          1.0
        ],
        "metallicFactor": 0.0,
        "roughnessFactor": 0.7883398951148328
      }
    },
    {
      "doubleSided": true,
      "name": "button1",
      "pbrMetallicRoughness": {
        "baseColorFactor": [
          0.8,
          0.000705107,
          0.0,
          1.0
        ],
        "metallicFactor": 0.0,
        "roughnessFactor": 0.9491384115843448
      }
    },
    {
      "doubleSided": true,
      "name": "button2",
      "pbrMetallicRoughness": {
        "baseColorFactor": [
          0.0,
          0.0135215,
          0.8,
          1.0
        ],
        "metallicFactor": 0.0,
        "roughnessFactor": 0.979894829746408
      }
    },
    {
      "doubleSided": true,
      "name": "button3",
      "pbrMetallicRoughness": {
        "baseColorFactor": [
          0.8,
          0.569692,
          0.0,
          1.0
        ],
        "metallicFactor": 0.0,
        "roughnessFactor": 0.8278049330890557
      }
    },
    {
      "doubleSided": true,
      "name": "button4",
      "pbrMetallicRoughness": {
        "baseColorFactor": [
          0.0439967,
          0.8,
          0.0,
          1.0
        ],
        "metallicFactor": 0.0,
        "roughnessFactor": 0.8266152765353462
      }
    },
    {
      "doubleSided": true,
      "name": "yellow_button",
      "pbrMetallicRoughness": {
        "baseColorFactor": [
          0.8,
          0.680829,
          0.00978872,
          1.0
        ],
        "metallicFactor": 0.0,
        "roughnessFactor": 0.8039070469392265
      }
    },
    {
      "doubleSided": true,
      "name": "marquee",
      "pbrMetallicRoughness": {
        "baseColorFactor": [
          0.8,
          0.8,
          0.8,
          1.0
        ],
        "metallicFactor": 0.0,
        "roughnessFactor": 0.8211145618000169
      }
    },
    {
      "doubleSided": true,
      "name": "seat",
      "pbrMetallicRoughness": {
        "metallicFactor": 0.0,
        "roughnessFactor": 0.7763932022500211
      }
    },
    {
      "doubleSided": true,
      "name": "seat_21",
      "pbrMetallicRoughness": {
        "baseColorFactor": [
          0.0,
          0.0,
          0.0,
          1.0
        ],
        "metallicFactor": 0.0
      }
    },
    {
      "doubleSided": true,
      "name": "bezel_instructions",
      "pbrMetallicRoughness": {
        "baseColorFactor": [
          0.722775,
          0.8,
          0.073747,
          1.0
        ],
        "metallicFactor": 0.0,
        "roughnessFactor": 0.8365106728066658
      }
    }
  ],
  "meshes": [
    {
      "name": "Object_0",
      "primitives": [
        {
          "attributes": {
            "NORMAL": 1,
            "POSITION": 0,
            "TEXCOORD_0": 2
          },
          "indices": 3,
          "material": 0,
          "mode": 4
        }
      ]
    },
    {
      "name": "Object_1",
      "primitives": [
        {
          "attributes": {
            "NORMAL": 5,
            "POSITION": 4,
            "TEXCOORD_0": 6
          },
          "indices": 7,
          "material": 1,
          "mode": 4
        }
      ]
    },
    {
      "name": "Object_2",
      "primitives": [
        {
          "attributes": {
            "NORMAL": 9,
            "POSITION": 8,
            "TEXCOORD_0": 10,
            "TEXCOORD_1": 11
          },
          "indices": 12,
          "material": 2,
          "mode": 4
        }
      ]
    },
    {
      "name": "Object_3",
      "primitives": [
        {
          "attributes": {
            "NORMAL": 14,
            "POSITION": 13,
            "TEXCOORD_0": 15,
            "TEXCOORD_1": 16
          },
          "indices": 17,
          "material": 1,
          "mode": 4
        }
      ]
    },
    {
      "name": "Object_4",
      "primitives": [
        {
          "attributes": {
            "NORMAL": 19,
            "POSITION": 18,
            "TEXCOORD_0": 20
          },
          "indices": 21,
          "material": 0,
          "mode": 4
        }
      ]
    },
    {
      "name": "Object_5",
      "primitives": [
        {
          "attributes": {
            "NORMAL": 23,
            "POSITION": 22,
            "TEXCOORD_0": 24
          },
          "indices": 25,
          "material": 3,
          "mode": 4
        }
      ]
    },
    {
      "name": "Object_6",
      "primitives": [
        {
          "attributes": {
            "NORMAL": 27,
            "POSITION": 26,
            "TEXCOORD_0": 28
          },
          "indices": 29,
          "material": 4,
          "mode": 4
        }
      ]
    },
    {
      "name": "Object_7",
      "primitives": [
        {
          "attributes": {
            "NORMAL": 31,
            "POSITION": 30,
            "TEXCOORD_0": 32
          },
          "indices": 33,
          "material": 5,
          "mode": 4
        }
      ]
    },
    {
      "name": "Object_8",
      "primitives": [
        {
          "attributes": {
            "NORMAL": 35,
            "POSITION": 34,
            "TEXCOORD_0": 36
          },
          "indices": 37,
          "material": 6,
          "mode": 4
        }
      ]
    },
    {
      "name": "Object_9",
      "primitives": [
        {
          "attributes": {
            "NORMAL": 39,
            "POSITION": 38,
            "TEXCOORD_0": 40
          },
          "indices": 41,
          "material": 1,
          "mode": 4
        }
      ]
    },
    {
      "name": "Object_10",
      "primitives": [
        {
          "attributes": {
            "NORMAL": 43,
            "POSITION": 42,
            "TEXCOORD_0": 44
          },
          "indices": 45,
          "material": 7,
          "mode": 4
        }
      ]
    },
    {
      "name": "Object_11",
      "primitives": [
        {
          "attributes": {
            "NORMAL": 47,
            "POSITION": 46,
            "TEXCOORD_0": 48
          },
          "indices": 49,
          "material": 8,
          "mode": 4
        }
      ]
    },
    {
      "name": "Object_12",
      "primitives": [
        {
          "attributes": {
            "NORMAL": 51,
            "POSITION": 50,
            "TEXCOORD_0": 52
          },
          "indices": 53,
          "material": 9,
          "mode": 4
        }
      ]
    },
    {
      "name": "Object_13",
      "primitives": [
        {
          "attributes": {
            "NORMAL": 55,
            "POSITION": 54,
            "TEXCOORD_0": 56
          },
          "indices": 57,
          "material": 10,
          "mode": 4
        }
      ]
    },
    {
      "name": "Object_14",
      "primitives": [
        {
          "attributes": {
            "NORMAL": 59,
            "POSITION": 58,
            "TEXCOORD_0": 60
          },
          "indices": 61,
          "material": 2,
          "mode": 4
        }
      ]
    },
    {
      "name": "Object_15",
      "primitives": [
        {
          "attributes": {
            "NORMAL": 63,
            "POSITION": 62,
            "TEXCOORD_0": 64
          },
          "indices": 65,
          "material": 11,
          "mode": 4
        }
      ]
    },
    {
      "name": "Object_16",
      "primitives": [
        {
          "attributes": {
            "NORMAL": 67,
            "POSITION": 66,
            "TEXCOORD_0": 68
          },
          "indices": 69,
          "material": 12,
          "mode": 4
        }
      ]
    },
    {
      "name": "Object_17",
      "primitives": [
        {
          "attributes": {
            "NORMAL": 71,
            "POSITION": 70,
            "TEXCOORD_0": 72
          },
          "indices": 73,
          "material": 13,
          "mode": 4
        }
      ]
    },
    {
      "name": "Object_18",
      "primitives": [
        {
          "attributes": {
            "NORMAL": 75,
            "POSITION": 74,
            "TEXCOORD_0": 76
          },
          "indices": 77,
          "material": 14,
          "mode": 4
        }
      ]
    },
    {
      "name": "Object_19",
      "primitives": [
        {
          "attributes": {
            "NORMAL": 79,
            "POSITION": 78,
            "TEXCOORD_0": 80
          },
          "indices": 81,
          "material": 15,
          "mode": 4
        }
      ]
    },
    {
      "name": "Object_20",
      "primitives": [
        {
          "attributes": {
            "NORMAL": 83,
            "POSITION": 82,
            "TEXCOORD_0": 84
          },
          "indices": 85,
          "material": 16,
          "mode": 4
        }
      ]
    },
    {
      "name": "Object_21",
      "primitives": [
        {
          "attributes": {
            "NORMAL": 87,
            "POSITION": 86,
            "TEXCOORD_0": 88
          },
          "indices": 89,
          "material": 17,
          "mode": 4
        }
      ]
    },
    {
      "name": "Object_22",
      "primitives": [
        {
          "attributes": {
            "NORMAL": 91,
            "POSITION": 90,
            "TEXCOORD_0": 92
          },
          "indices": 93,
          "material": 18,
          "mode": 4
        }
      ]
    },
    {
      "name": "Object_23",
      "primitives": [
        {
          "attributes": {
            "NORMAL": 95,
            "POSITION": 94,
            "TEXCOORD_0": 96
          },
          "indices": 97,
          "material": 0,
          "mode": 4
        }
      ]
    },
    {
      "name": "Object_24",
      "primitives": [
        {
          "attributes": {
            "NORMAL": 99,
            "POSITION": 98,
            "TEXCOORD_0": 100
          },
          "indices": 101,
          "material": 19,
          "mode": 4
        }
      ]
    },
    {
      "name": "Object_25",
      "primitives": [
        {
          "attributes": {
            "NORMAL": 103,
            "POSITION": 102,
            "TEXCOORD_0": 104
          },
          "indices": 105,
          "material": 3,
          "mode": 4
        }
      ]
    },
    {
      "name": "Object_26",
      "primitives": [
        {
          "attributes": {
            "NORMAL": 107,
            "POSITION": 106,
            "TEXCOORD_0": 108
          },
          "indices": 109,
          "material": 20,
          "mode": 4
        }
      ]
    },
    {
      "name": "Object_27",
      "primitives": [
        {
          "attributes": {
            "NORMAL": 111,
            "POSITION": 110,
            "TEXCOORD_0": 112
          },
          "indices": 113,
          "material": 21,
          "mode": 4
        }
      ]
    },
    {
      "name": "Object_28",
      "primitives": [
        {
          "attributes": {
            "NORMAL": 115,
            "POSITION": 114,
            "TEXCOORD_0": 116
          },
          "indices": 117,
          "material": 7,
          "mode": 4
        }
      ]
    },
    {
      "name": "Object_29",
      "primitives": [
        {
          "attributes": {
            "NORMAL": 119,
            "POSITION": 118,
            "TEXCOORD_0": 120
          },
          "indices": 121,
          "material": 0,
          "mode": 4
        }
      ]
    },
    {
      "name": "Object_30",
      "primitives": [
        {
          "attributes": {
            "NORMAL": 123,
            "POSITION": 122,
            "TEXCOORD_0": 124
          },
          "indices": 125,
          "material": 22,
          "mode": 4
        }
      ]
    }
  ],
  "nodes": [
    {
      "children": [
        1
      ],
      "matrix": [
        1.0,
        0.0,
        0.0,
        0.0,
        0.0,
        2.220446049250313e-16,
        -1.0,
        0.0,
        0.0,
        1.0,
        2.220446049250313e-16,
        0.0,
        0.0,
        0.0,
        0.0,
        1.0
      ],
      "name": "Sketchfab_model"
    },
    {
      "children": [
        2
      ],
      "name": "root"
    },
    {
      "children": [
        3,
        6,
        9,
        14,
        30,
        34,
        38
      ],
      "matrix": [
        1.0,
        0.0,
        0.0,
        0.0,
        0.0,
        2.220446049250313e-16,
        1.0,
        0.0,
        0.0,
        -1.0,
        2.220446049250313e-16,
        0.0,
        0.0,
        0.0,
        0.0,
        1.0
      ],
      "name": "GLTF_SceneRootNode"
    },
    {
      "children": [
        4,
        5
      ],
      "matrix": [
        0.9687259197235107,
        0.0,
        0.0,
        0.0,
        0.0,
        0.34456172585487366,
        0.0,
        0.0,
        0.0,
        0.0,
        1.3176689147949219,
        0.0,
        -0.0194893479347229,
        2.10683274269104,
        0.0,
        1.0
      ],
      "name": "pedals_0"
    },
    {
      "mesh": 0,
      "name": "Object_4"
    },
    {
      "mesh": 1,
      "name": "Object_5"
    },
    {
      "children": [
        7,
        8
      ],
      "matrix": [
        1.3322676295501878e-14,
        -0.9999999999999867,
        -1.6292068076121266e-07,
        0.0,
        -1.1765823364257655,
        1.5675225603205972e-14,
        -1.9168959522210642e-07,
        0.0,
        1.6292068076121266e-07,
        1.6292068076121266e-07,
        -0.9999999999999734,
        0.0,
        3.8317713737487793,
        7.603772163391113,
        0.0,
        1.0
      ],
      "name": "ketz_steering_wheel_1"
    },
    {
      "mesh": 2,
      "name": "Object_7"
    },
    {
      "mesh": 3,
      "name": "Object_8"
    },
    {
      "children": [
        10,
        11,
        12,
        13
      ],
      "matrix": [
        3.995572328567505,
        0.0,
        0.0,
        0.0,
        0.0,
        0.8823564052581787,
        0.0,
        0.0,
        0.0,
        0.0,
        3.763702154159546,
        0.0,
        0.1236395314335823,
        0.0,
        0.0,
        1.0
      ],
      "name": "cabinet_2"
    },
    {
      "mesh": 4,
      "name": "Object_10"
    },
    {
      "mesh": 5,
      "name": "Object_11"
    },
    {
      "mesh": 6,
      "name": "Object_12"
    },
    {
      "mesh": 7,
      "name": "Object_13"
    },
    {
      "children": [
        15,
        16,
        17,
        18,
        19,
        20,
        21,
        22,
        23,
        24,
        25,
        26,
        27,
        28,
        29
      ],
      "matrix": [
        0.2531141936779022,
        0.0,
        0.0,
        0.0,
        0.0,
        0.2531141936779022,
        0.0,
        0.0,
        0.0,
        0.0,
        0.2531141936779022,
        0.0,
        2.957566261291504,
        7.609000205993652,
        0.015434933826327324,
        1.0
      ],
      "name": "ctrl_panel_3"
    },
    {
      "mesh": 8,
      "name": "Object_15"
    },
    {
      "mesh": 9,
      "name": "Object_16"
    },
    {
      "mesh": 10,
      "name": "Object_17"
    },
    {
      "mesh": 11,
      "name": "Object_18"
    },
    {
      "mesh": 12,
      "name": "Object_19"
    },
    {
      "mesh": 13,
      "name": "Object_20"
    },
    {
      "mesh": 14,
      "name": "Object_21"
    },
    {
      "mesh": 15,
      "name": "Object_22"
    },
    {
      "mesh": 16,
      "name": "Object_23"
    },
    {
      "mesh": 17,
      "name": "Object_24"
    },
    {
      "mesh": 18,
      "name": "Object_25"
    },
    {
      "mesh": 19,
      "name": "Object_26"
    },
    {
      "mesh": 20,
      "name": "Object_27"
    },
    {
      "mesh": 21,
      "name": "Object_28"
    },
    {
      "mesh": 22,
      "name": "Object_29"
    },
    {
      "children": [
        31,
        32,
        33
      ],
      "matrix": [
        1.0,
        0.0,
        0.0,
        0.0,
        0.0,
        1.0,
        0.0,
        0.0,
        0.0,
        0.0,
        3.7788796424865723,
        0.0,
        1.8715617656707764,
        16.31311798095703,
        0.0,
        1.0
      ],
      "name": "single_marquee_4"
    },
    {
      "mesh": 23,
      "name": "Object_31"
    },
    {
      "mesh": 24,
      "name": "Object_32"
    },
    {
      "mesh": 25,
      "name": "Object_33"
    },
    {
      "children": [
        35,
        36,
        37
      ],
      "matrix": [
        0.7079474329948425,
        0.0,
        0.0,
        0.0,
        0.0,
        0.7079474329948425,
        0.0,
        0.0,
        0.0,
        0.0,
        0.8051910996437073,
        0.0,
        6.513973712921143,
        3.129045248031616,
        0.0,
        1.0
      ],
      "name": "seat_5"
    },
    {
      "mesh": 26,
      "name": "Object_35"
    },
    {
      "mesh": 27,
      "name": "Object_36"
    },
    {
      "mesh": 28,
      "name": "Object_37"
    },
    {
      "children": [
        39,
        40
      ],
      "matrix": [
        3.995572328567505,
        0.0,
        0.0,
        0.0,
        0.0,
        0.8823564052581787,
        0.0,
        0.0,
        0.0,
        0.0,
        3.763702154159546,
        0.0,
        0.1236395314335823,
        0.0,
        0.0,
        1.0
      ],
      "name": "bezel_instructions_6"
    },
    {
      "mesh": 29,
      "name": "Object_39"
    },
    {
      "mesh": 30,
      "name": "Object_40"
    }
  ],
  "scene": 0,
  "scenes": [
    {
      "name": "Sketchfab_Scene",
      "nodes": [
        0
      ]
    }
  ]
}
