{
  "accessors": [
    {
      "bufferView": 2,
      "componentType": 5126,
      "count": 676,
      "max": [
        2.039924383163452,
        12.746223449707031,
        2.8217568397521973
      ],
      "min": [
        -2.039924383163452,
        0.0,
        -2.0372543334960938
      ],
      "type": "VEC3"
    },
    {
      "bufferView": 2,
      "byteOffset": 8112,
      "componentType": 5126,
      "count": 676,
      "max": [
        1.0,
        1.0,
        1.0
      ],
      "min": [
        -1.0,
        -1.0,
        -1.0
      ],
      "type": "VEC3"
    },
    {
      "bufferView": 1,
      "componentType": 5126,
      "count": 676,
      "max": [
        0.875,
        1.0
      ],
      "min": [
        0.125,
        0.0
      ],
      "type": "VEC2"
    },
    {
      "bufferView": 0,
      "componentType": 5125,
      "count": 2844,
      "type": "SCALAR"
    },
    {
      "bufferView": 2,
      "byteOffset": 16224,
      "componentType": 5126,
      "count": 45,
      "max": [
        2.039924383163452,
        12.404219627380371,
        2.8217568397521973
      ],
      "min": [
        -2.039924383163452,
        4.72761344909668,
        2.5478696823120117
      ],
      "type": "VEC3"
    },
    {
      "bufferView": 2,
      "byteOffset": 16764,
      "componentType": 5126,
      "count": 45,
      "max": [
        2.599828349048039e-06,
        0.24024006724357605,
        1.0
      ],
      "min": [
        -3.0157764285831945e-06,
        -0.2267366647720337,
        0.9707134962081909
      ],
      "type": "VEC3"
    },
    {
      "bufferView": 1,
      "byteOffset": 5408,
      "componentType": 5126,
      "count": 45,
      "max": [
        0.625,
        0.25
      ],
      "min": [
        0.375,
        0.25
      ],
      "type": "VEC2"
    },
    {
      "bufferView": 0,
      "byteOffset": 11376,
      "componentType": 5125,
      "count": 168,
      "type": "SCALAR"
    },
    {
      "bufferView": 2,
      "byteOffset": 17304,
      "componentType": 5126,
      "count": 110,
      "max": [
        2.039924383163452,
        10.821723937988281,
        0.934930682182312
      ],
      "min": [
        -2.039924383163452,
        5.857037544250488,
        -0.03533773869276047
      ],
      "type": "VEC3"
    },
    {
      "bufferView": 2,
      "byteOffset": 18624,
      "componentType": 5126,
      "count": 110,
      "max": [
        0.9160529375076294,
        0.9691018462181091,
        0.9866451621055603
      ],
      "min": [
        -0.9160510301589966,
        -0.8385937809944153,
        0.2466609925031662
      ],
      "type": "VEC3"
    },
    {
      "bufferView": 1,
      "byteOffset": 5768,
      "componentType": 5126,
      "count": 110,
      "max": [
        0.625,
        0.25
      ],
      "min": [
        0.375,
        0.25
      ],
      "type": "VEC2"
    },
    {
      "bufferView": 0,
      "byteOffset": 12048,
      "componentType": 5125,
      "count": 420,
      "type": "SCALAR"
    },
    {
      "bufferView": 2,
      "byteOffset": 19944,
      "componentType": 5126,
      "count": 4,
      "max": [
        1.606660008430481,
        10.292472839355469,
        0.6210542321205139
      ],
      "min": [
        -1.606660008430481,
        6.311964511871338,
        -0.03533773869276047
      ],
      "type": "VEC3"
    },
    {
      "bufferView": 2,
      "byteOffset": 19992,
      "componentType": 5126,
      "count": 4,
      "max": [
        0.0,
        0.1627042144536972,
        0.986674964427948
      ],
      "min": [
        0.0,
        0.1627042144536972,
        0.986674964427948
      ],
      "type": "VEC3"
    },
    {
      "bufferView": 1,
      "byteOffset": 6648,
      "componentType": 5126,
      "count": 4,
      "max": [
        0.625,
        0.25
      ],
      "min": [
        0.375,
        0.25
      ],
      "type": "VEC2"
    },
    {
      "bufferView": 0,
      "byteOffset": 13728,
      "componentType": 5125,
      "count": 6,
      "type": "SCALAR"
    },
    {
      "bufferView": 2,
      "byteOffset": 20040,
      "componentType": 5126,
      "count": 499,
      "max": [
        1.9022326469421387,
        6.773979663848877,
        2.303621292114258
      ],
      "min": [
        1.3549251556396484,
        6.227309703826904,
        1.756951928138733
      ],
      "type": "VEC3"
    },
    {
      "bufferView": 2,
      "byteOffset": 26028,
      "componentType": 5126,
      "count": 499,
      "max": [
        1.0,
        0.9979435205459595,
        0.999038577079773
      ],
      "min": [
        -1.0,
        -0.9995425939559937,
        -0.9995428323745728
      ],
      "type": "VEC3"
    },
    {
      "bufferView": 1,
      "byteOffset": 6680,
      "componentType": 5126,
      "count": 499,
      "max": [
        1.0000001192092896,
        1.0
      ],
      "min": [
        0.0,
        0.0
      ],
      "type": "VEC2"
    },
    {
      "bufferView": 0,
      "byteOffset": 13752,
      "componentType": 5125,
      "count": 2340,
      "type": "SCALAR"
    },
    {
      "bufferView": 2,
      "byteOffset": 32016,
      "componentType": 5126,
      "count": 564,
      "max": [
        1.6713876724243164,
        6.290380477905273,
        2.332667112350464
      ],
      "min": [
        -1.318593978881836,
        5.481058120727539,
        1.4925072193145752
      ],
      "type": "VEC3"
    },
    {
      "bufferView": 2,
      "byteOffset": 38784,
      "componentType": 5126,
      "count": 564,
      "max": [
        1.0,
        0.967353105545044,
        0.9673503637313843
      ],
      "min": [
        -1.0,
        -0.2538832128047943,
        -0.9673510193824768
      ],
      "type": "VEC3"
    },
    {
      "bufferView": 1,
      "byteOffset": 10672,
      "componentType": 5126,
      "count": 564,
      "max": [
        1.0,
        1.0
      ],
      "min": [
        0.0,
        0.0
      ],
      "type": "VEC2"
    },
    {
      "bufferView": 0,
      "byteOffset": 23112,
      "componentType": 5125,
      "count": 960,
      "type": "SCALAR"
    },
    {
      "bufferView": 2,
      "byteOffset": 45552,
      "componentType": 5126,
      "count": 600,
      "max": [
        0.46587932109832764,
        5.917395114898682,
        2.2597904205322266
      ],
      "min": [
        -1.2202166318893433,
        5.509820938110352,
        1.5886746644973755
      ],
      "type": "VEC3"
    },
    {
      "bufferView": 2,
      "byteOffset": 52752,
      "componentType": 5126,
      "count": 600,
      "max": [
        1.0,
        0.967355489730835,
        0.9673506617546082
      ],
      "min": [
        -1.0,
        -0.2534428536891937,
        -0.9673483371734619
      ],
      "type": "VEC3"
    },
    {
      "bufferView": 1,
      "byteOffset": 15184,
      "componentType": 5126,
      "count": 600,
      "max": [
        1.0,
        1.0
      ],
      "min": [
        0.0,
        0.0
      ],
      "type": "VEC2"
    },
    {
      "bufferView": 0,
      "byteOffset": 26952,
      "componentType": 5125,
      "count": 840,
      "type": "SCALAR"
    },
    {
      "bufferView": 2,
      "byteOffset": 59952,
      "componentType": 5126,
      "count": 271,
      "max": [
        -1.2335165739059448,
        3.2409768104553223,
        2.8150711059570313
      ],
      "min": [
        -1.5697916746139526,
        2.683093547821045,
        2.5609991550445557
      ],
      "type": "VEC3"
    },
    {
      "bufferView": 2,
      "byteOffset": 63204,
      "componentType": 5126,
      "count": 271,
      "max": [
        0.9999997615814209,
        0.9861933588981628,
        0.9886353015899658
      ],
      "min": [
        -0.9999997019767761,
        -0.9962895512580872,
        -0.16559576988220215
      ],
      "type": "VEC3"
    },
    {
      "bufferView": 1,
      "byteOffset": 19984,
      "componentType": 5126,
      "count": 271,
      "max": [
        1.0,
        1.0
      ],
      "min": [
        -0.0,
        -0.0
      ],
      "type": "VEC2"
    },
    {
      "bufferView": 0,
      "byteOffset": 30312,
      "componentType": 5125,
      "count": 864,
      "type": "SCALAR"
    },
    {
      "bufferView": 2,
      "byteOffset": 66456,
      "componentType": 5126,
      "count": 242,
      "max": [
        1.726839303970337,
        5.771675109863281,
        2.612697124481201
      ],
      "min": [
        1.5382169485092163,
        4.99765682220459,
        1.2747200727462769
      ],
      "type": "VEC3"
    },
    {
      "bufferView": 2,
      "byteOffset": 69360,
      "componentType": 5126,
      "count": 242,
      "max": [
        0.9999999403953552,
        0.995620846748352,
        0.9900816082954407
      ],
      "min": [
        -0.9999999403953552,
        -0.26689979434013367,
        -0.9637253284454346
      ],
      "type": "VEC3"
    },
    {
      "bufferView": 1,
      "byteOffset": 22152,
      "componentType": 5126,
      "count": 242,
      "max": [
        1.0,
        1.0
      ],
      "min": [
        -0.0,
        -6.984919309616089e-09
      ],
      "type": "VEC2"
    },
    {
      "bufferView": 0,
      "byteOffset": 33768,
      "componentType": 5125,
      "count": 606,
      "type": "SCALAR"
    },
    {
      "bufferView": 2,
      "byteOffset": 72264,
      "componentType": 5126,
      "count": 4281,
      "max": [
        4.881156921386719,
        0.8871157765388489,
        -1.2256009578704834
      ],
      "min": [
        1.370236873626709,
        -0.004285253584384918,
        -5.716421127319336
      ],
      "type": "VEC3"
    },
    {
      "bufferView": 2,
      "byteOffset": 123636,
      "componentType": 5126,
      "count": 4281,
      "max": [
        0.9936813712120056,
        0.9999298453330994,
        0.9999982118606567
      ],
      "min": [
        -0.9928749799728394,
        -0.9999294877052307,
        -0.9999977350234985
      ],
      "type": "VEC3"
    },
    {
      "bufferView": 1,
      "byteOffset": 24088,
      "componentType": 5126,
      "count": 4281,
      "max": [
        1.1630983352661133,
        1.0
      ],
      "min": [
        -0.15483208000659943,
        0.0
      ],
      "type": "VEC2"
    },
    {
      "bufferView": 0,
      "byteOffset": 36192,
      "componentType": 5125,
      "count": 12420,
      "type": "SCALAR"
    },
    {
      "bufferView": 2,
      "byteOffset": 175008,
      "componentType": 5126,
      "count": 665,
      "max": [
        2.394576072692871,
        1.105006217956543,
        -1.0710880756378174
      ],
      "min": [
        1.9640765190124512,
        0.5140756368637085,
        -1.6620187759399414
      ],
      "type": "VEC3"
    },
    {
      "bufferView": 2,
      "byteOffset": 182988,
      "componentType": 5126,
      "count": 665,
      "max": [
        1.0,
        1.0,
        1.0
      ],
      "min": [
        -1.0,
        -1.0,
        -1.0
      ],
      "type": "VEC3"
    },
    {
      "bufferView": 1,
      "byteOffset": 58336,
      "componentType": 5126,
      "count": 665,
      "max": [
        1.0,
        1.0
      ],
      "min": [
        0.0,
        0.0
      ],
      "type": "VEC2"
    },
    {
      "bufferView": 0,
      "byteOffset": 85872,
      "componentType": 5125,
      "count": 1500,
      "type": "SCALAR"
    },
    {
      "bufferView": 2,
      "byteOffset": 190968,
      "componentType": 5126,
      "count": 359,
      "max": [
        2.1909964084625244,
        5.473421573638916,
        1.928933024406433
      ],
      "min": [
        2.041442394256592,
        1.3272743225097656,
        -1.8061144351959229
      ],
      "type": "VEC3"
    },
    {
      "bufferView": 2,
      "byteOffset": 195276,
      "componentType": 5126,
      "count": 359,
      "max": [
        0.9990279674530029,
        0.8016315698623657,
        0.9895612001419067
      ],
      "min": [
        -1.0,
        -0.7131145000457764,
        -0.7131134271621704
      ],
      "type": "VEC3"
    },
    {
      "bufferView": 1,
      "byteOffset": 63656,
      "componentType": 5126,
      "count": 359,
      "max": [
        1.0,
        1.0
      ],
      "min": [
        0.0,
        0.0
      ],
      "type": "VEC2"
    },
    {
      "bufferView": 0,
      "byteOffset": 91872,
      "componentType": 5125,
      "count": 702,
      "type": "SCALAR"
    }
  ],
  "asset": {
    "extras": {
      "author": "j0el_02 (https://sketchfab.com/j0el_02)",
      "license": "CC-BY-4.0 (http://creativecommons.org/licenses/by/4.0/)",
      "source": "https://sketchfab.com/3d-models/arcade-machine-77d667abc0d84faab04aba479bbd2af1",
      "title": "Arcade Machine"
    },
    "generator": "Sketchfab-15.47.0",
    "version": "2.0"
  },
  "bufferViews": [
    {
      "buffer": 0,
      "byteLength": 94680,
      "name": "floatBufferViews",
      "target": 34963
    },
    {
      "buffer": 0,
      "byteLength": 66528,
      "byteOffset": 94680,
      "byteStride": 8,
      "name": "floatBufferViews",
      "target": 34962
    },
    {
      "buffer": 0,
      "byteLength": 199584,
      "byteOffset": 161208,
      "byteStride": 12,
      "name": "floatBufferViews",
      "target": 34962
    }
  ],
  "buffers": [
    {
      "byteLength": 360792,
      "uri": "scene.bin"
    }
  ],
  "materials": [
    {
      "doubleSided": true,
      "name": "arcadeMachine_material",
      "pbrMetallicRoughness": {
        "baseColorFactor": [
          0.0,
          0.3002,
          1.0,
          1.0
        ],
        "metallicFactor": 0.0,
        "roughnessFactor": 0.9207483816249483
      }
    },
    {
      "doubleSided": true,
      "name": "PackmanButtonLetter_material",
      "pbrMetallicRoughness": {
        "baseColorFactor": [
          0.6485,
          0.0,
          1.0,
          1.0
        ],
        "metallicFactor": 0.0,
        "roughnessFactor": 0.9207483816249483
      }
    },
    {
      "doubleSided": true,
      "name": "aroundScreen_material",
      "pbrMetallicRoughness": {
        "baseColorFactor": [
          0.0,
          1.0,
          0.4778,
          1.0
        ],
        "metallicFactor": 0.0,
        "roughnessFactor": 0.9207483816249483
      }
    },
    {
      "doubleSided": true,
      "name": "screen_material",
      "pbrMetallicRoughness": {
        "baseColorFactor": [
          0.0,
          0.0,
          0.0,
          1.0
        ],
        "metallicFactor": 0.0,
        "roughnessFactor": 0.9207483816249483
      }
    },
    {
      "doubleSided": true,
      "name": "pasted__levelSphere_material",
      "pbrMetallicRoughness": {
        "baseColorFactor": [
          1.0,
          0.0,
          0.4143,
          1.0
        ],
        "metallicFactor": 0.0,
        "roughnessFactor": 0.9207483816249483
      }
    },
    {
      "doubleSided": true,
      "name": "pasted__leverDownButton_material",
      "pbrMetallicRoughness": {
        "baseColorFactor": [
          0.6193,
          0.6193,
          0.6193,
          1.0
        ],
        "metallicFactor": 0.0,
        "roughnessFactor": 0.9207483816249483
      }
    },
    {
      "doubleSided": true,
      "name": "pasted__button_material",
      "pbrMetallicRoughness": {
        "baseColorFactor": [
          1.0,
          0.0,
          0.1118,
          1.0
        ],
        "metallicFactor": 0.0,
        "roughnessFactor": 0.9207483816249483
      }
    },
    {
      "doubleSided": true,
      "name": "pasted__coinrack_material",
      "pbrMetallicRoughness": {
        "baseColorFactor": [
          0.2723,
          0.2723,
          0.2723,
          1.0
        ],
        "metallicFactor": 0.0,
        "roughnessFactor": 0.9207483816249483
      }
    },
    {
      "doubleSided": true,
      "name": "pasted__arcadeMachine_material",
      "pbrMetallicRoughness": {
        "baseColorFactor": [
          0.0,
          0.3002,
          1.0,
          1.0
        ],
        "metallicFactor": 0.0,
        "roughnessFactor": 0.9207483816249483
      }
    },
    {
      "doubleSided": true,
      "name": "lambert1",
      "pbrMetallicRoughness": {
        "baseColorFactor": [
          0.0,
          0.0182478,
          0.141,
          1.0
        ],
        "metallicFactor": 0.0,
        "roughnessFactor": 0.6
      }
    },
    {
      "doubleSided": true,
      "name": "lambert3",
      "pbrMetallicRoughness": {
        "baseColorFactor": [
          0.5,
          0.5,
          0.5,
          1.0
        ],
        "metallicFactor": 0.0,
        "roughnessFactor": 0.6
      }
    },
    {
      "doubleSided": true,
      "name": "lambert2",
      "pbrMetallicRoughness": {
        "baseColorFactor": [
          0.9705,
          1.0,
          0.1372,
          1.0
        ],
        "metallicFactor": 0.0,
        "roughnessFactor": 0.6
      }
    }
  ],
  "meshes": [
    {
      "name": "FBX_VendingMachine_arcadeMachine_material_0",
      "primitives": [
        {
          "attributes": {
            "NORMAL": 1,
            "POSITION": 0,
            "TEXCOORD_0": 2
          },
          "indices": 3,
          "material": 0,
          "mode": 4
        }
      ]
    },
    {
      "name": "FBX_VendingMachine_PackmanButtonLetter_material_0",
      "primitives": [
        {
          "attributes": {
            "NORMAL": 5,
            "POSITION": 4,
            "TEXCOORD_0": 6
          },
          "indices": 7,
          "material": 1,
          "mode": 4
        }
      ]
    },
    {
      "name": "FBX_VendingMachine_aroundScreen_material_0",
      "primitives": [
        {
          "attributes": {
            "NORMAL": 9,
            "POSITION": 8,
            "TEXCOORD_0": 10
          },
          "indices": 11,
          "material": 2,
          "mode": 4
        }
      ]
    },
    {
      "name": "FBX_VendingMachine_screen_material_0",
      "primitives": [
        {
          "attributes": {
            "NORMAL": 13,
            "POSITION": 12,
            "TEXCOORD_0": 14
          },
          "indices": 15,
          "material": 3,
          "mode": 4
        }
      ]
    },
    {
      "name": "FBX_VendingMachine_pasted__levelSphere_material_0",
      "primitives": [
        {
          "attributes": {
            "NORMAL": 17,
            "POSITION": 16,
            "TEXCOORD_0": 18
          },
          "indices": 19,
          "material": 4,
          "mode": 4
        }
      ]
    },
    {
      "name": "FBX_VendingMachine_pasted__leverDownButton_material_0",
      "primitives": [
        {
          "attributes": {
            "NORMAL": 21,
            "POSITION": 20,
            "TEXCOORD_0": 22
          },
          "indices": 23,
          "material": 5,
          "mode": 4
        }
      ]
    },
    {
      "name": "FBX_VendingMachine_pasted__button_material_0",
      "primitives": [
        {
          "attributes": {
            "NORMAL": 25,
            "POSITION": 24,
            "TEXCOORD_0": 26
          },
          "indices": 27,
          "material": 6,
          "mode": 4
        }
      ]
    },
    {
      "name": "FBX_VendingMachine_pasted__coinrack_material_0",
      "primitives": [
        {
          "attributes": {
            "NORMAL": 29,
            "POSITION": 28,
            "TEXCOORD_0": 30
          },
          "indices": 31,
          "material": 7,
          "mode": 4
        }
      ]
    },
    {
      "name": "FBX_VendingMachine_pasted__arcadeMachine_material_0",
      "primitives": [
        {
          "attributes": {
            "NORMAL": 33,
            "POSITION": 32,
            "TEXCOORD_0": 34
          },
          "indices": 35,
          "material": 8,
          "mode": 4
        }
      ]
    },
    {
      "name": "FBX_VendingMachine_lambert1_0",
      "primitives": [
        {
          "attributes": {
            "NORMAL": 37,
            "POSITION": 36,
            "TEXCOORD_0": 38
          },
          "indices": 39,
          "material": 9,
          "mode": 4
        }
      ]
    },
    {
      "name": "FBX_VendingMachine_lambert3_0",
      "primitives": [
        {
          "attributes": {
            "NORMAL": 41,
            "POSITION": 40,
            "TEXCOORD_0": 42
          },
          "indices": 43,
          "material": 10,
          "mode": 4
        }
      ]
    },
    {
      "name": "FBX_VendingMachine_lambert2_0",
      "primitives": [
        {
          "attributes": {
            "NORMAL": 45,
            "POSITION": 44,
            "TEXCOORD_0": 46
          },
          "indices": 47,
          "material": 11,
          "mode": 4
        }
      ]
    }
  ],
  "nodes": [
    {
      "children": [
        1
      ],
      "matrix": [
        1.0,
        0.0,
        0.0,
        0.0,
        0.0,
        2.220446049250313e-16,
        -1.0,
        0.0,
        0.0,
        1.0,
        2.220446049250313e-16,
        0.0,
        0.0,
        0.0,
        0.0,
        1.0
      ],
      "name": "Sketchfab_model"
    },
    {
      "children": [
        2
      ],
      "matrix": [
        1.0,
        0.0,
        0.0,
        0.0,
        0.0,
        0.0,
        1.0,
        0.0,
        0.0,
        -1.0,
        0.0,
        0.0,
        0.0,
        0.0,
        0.0,
        1.0
      ],
      "name": "a94f1725e83343caaa3d72c27dd968bf.fbx"
    },
    {
      "children": [
        3
      ],
      "name": "RootNode"
    },
    {
      "children": [
        4,
        5,
        6,
        7,
        8,
        9,
        10,
        11,
        12,
        13,
        14,
        15
      ],
      "matrix": [
        0.009999999776482582,
        0.0,
        2.4492935435487283e-18,
        0.0,
        0.0,
        0.009999999776482582,
        0.0,
        0.0,
        -2.4492935435487283e-18,
        0.0,
        0.009999999776482582,
        0.0,
        -2.220446049250313e-16,
        0.0,
        0.0,
        1.0
      ],
      "name": "FBX_VendingMachine"
    },
    {
      "mesh": 0,
      "name": "FBX_VendingMachine_arcadeMachine_material_0"
    },
    {
      "mesh": 1,
      "name": "FBX_VendingMachine_PackmanButtonLetter_material_0"
    },
    {
      "mesh": 2,
      "name": "FBX_VendingMachine_aroundScreen_material_0"
    },
    {
      "mesh": 3,
      "name": "FBX_VendingMachine_screen_material_0"
    },
    {
      "mesh": 4,
      "name": "FBX_VendingMachine_pasted__levelSphere_material_0"
    },
    {
      "mesh": 5,
      "name": "FBX_VendingMachine_pasted__leverDownButton_material_0"
    },
    {
      "mesh": 6,
      "name": "FBX_VendingMachine_pasted__button_material_0"
    },
    {
      "mesh": 7,
      "name": "FBX_VendingMachine_pasted__coinrack_material_0"
    },
    {
      "mesh": 8,
      "name": "FBX_VendingMachine_pasted__arcadeMachine_material_0"
    },
    {
      "mesh": 9,
      "name": "FBX_VendingMachine_lambert1_0"
    },
    {
      "mesh": 10,
      "name": "FBX_VendingMachine_lambert3_0"
    },
    {
      "mesh": 11,
      "name": "FBX_VendingMachine_lambert2_0"
    }
  ],
  "scene": 0,
  "scenes": [
    {
      "name": "Sketchfab_Scene",
      "nodes": [
        0
      ]
    }
  ]
}
