{
  "accessors": [
    {
      "bufferView": 2,
      "componentType": 5126,
      "count": 108,
      "max": [
        123.5565185546875,
        299.899169921875,
        244.27438354492188
      ],
      "min": [
        -123.5565185546875,
        -268.9895324707031,
        -1.2543792724609375
      ],
      "type": "VEC3"
    },
    {
      "bufferView": 2,
      "byteOffset": 1296,
      "componentType": 5126,
      "count": 108,
      "max": [
        1.0,
        1.0,
        1.0
      ],
      "min": [
        -1.0,
        -1.0,
        -1.0
      ],
      "type": "VEC3"
    },
    {
      "bufferView": 1,
      "componentType": 5126,
      "count": 108,
      "max": [
        0.9892578125,
        0.9748992919921875
      ],
      "min": [
        0.042205810546875,
        0.046875
      ],
      "type": "VEC2"
    },
    {
      "bufferView": 1,
      "byteOffset": 864,
      "componentType": 5126,
      "count": 108,
      "max": [
        0.96533203125,
        0.998046875
      ],
      "min": [
        0.001953125,
        0.30859375
      ],
      "type": "VEC2"
    },
    {
      "bufferView": 0,
      "componentType": 5125,
      "count": 264,
      "type": "SCALAR"
    },
    {
      "bufferView": 2,
      "byteOffset": 2592,
      "componentType": 5126,
      "count": 204,
      "max": [
        123.5565185546875,
        299.899169921875,
        244.27438354492188
      ],
      "min": [
        -123.5565185546875,
        -268.9895324707031,
        -1.2544708251953125
      ],
      "type": "VEC3"
    },
    {
      "bufferView": 2,
      "byteOffset": 5040,
      "componentType": 5126,
      "count": 204,
      "max": [
        1.0,
        1.0,
        0.9969221353530884
      ],
      "min": [
        -1.0,
        -1.0,
        -1.0
      ],
      "type": "VEC3"
    },
    {
      "bufferView": 1,
      "byteOffset": 1728,
      "componentType": 5126,
      "count": 204,
      "max": [
        0.9892578125,
        0.975250244140625
      ],
      "min": [
        0.0187225341796875,
        0.01513671875
      ],
      "type": "VEC2"
    },
    {
      "bufferView": 1,
      "byteOffset": 3360,
      "componentType": 5126,
      "count": 204,
      "max": [
        0.98876953125,
        0.998046875
      ],
      "min": [
        0.001953125,
        0.09228515625
      ],
      "type": "VEC2"
    },
    {
      "bufferView": 0,
      "byteOffset": 1056,
      "componentType": 5125,
      "count": 492,
      "type": "SCALAR"
    },
    {
      "bufferView": 2,
      "byteOffset": 7488,
      "componentType": 5126,
      "count": 12661,
      "max": [
        116.43365478515625,
        -207.0679931640625,
        97.14395141601563
      ],
      "min": [
        -116.43365478515625,
        -267.110595703125,
        24.521575927734375
      ],
      "type": "VEC3"
    },
    {
      "bufferView": 2,
      "byteOffset": 159420,
      "componentType": 5126,
      "count": 12661,
      "max": [
        1.0,
        1.0,
        1.0
      ],
      "min": [
        -1.0,
        -1.0,
        -1.0
      ],
      "type": "VEC3"
    },
    {
      "bufferView": 1,
      "byteOffset": 4992,
      "componentType": 5126,
      "count": 12661,
      "max": [
        137.75,
        173.125
      ],
      "min": [
        -174.0,
        -7.7109375
      ],
      "type": "VEC2"
    },
    {
      "bufferView": 1,
      "byteOffset": 106280,
      "componentType": 5126,
      "count": 12661,
      "max": [
        0.99609375,
        0.9980478286743164
      ],
      "min": [
        0.0019521713256835938,
        0.509765625
      ],
      "type": "VEC2"
    },
    {
      "bufferView": 0,
      "byteOffset": 3024,
      "componentType": 5125,
      "count": 22560,
      "type": "SCALAR"
    },
    {
      "bufferView": 2,
      "byteOffset": 311352,
      "componentType": 5126,
      "count": 701,
      "max": [
        15.88275146484375,
        -264.7489318847656,
        49.76429748535156
      ],
      "min": [
        -9.28057861328125,
        -264.9076843261719,
        45.95130920410156
      ],
      "type": "VEC3"
    },
    {
      "bufferView": 2,
      "byteOffset": 319764,
      "componentType": 5126,
      "count": 701,
      "max": [
        1.0,
        1.0,
        1.0
      ],
      "min": [
        -1.0,
        -1.0,
        -1.0
      ],
      "type": "VEC3"
    },
    {
      "bufferView": 1,
      "byteOffset": 207568,
      "componentType": 5126,
      "count": 701,
      "max": [
        0.5029296875,
        4.765625
      ],
      "min": [
        -0.5029296875,
        -0.0029296875
      ],
      "type": "VEC2"
    },
    {
      "bufferView": 1,
      "byteOffset": 213176,
      "componentType": 5126,
      "count": 701,
      "max": [
        0.94287109375,
        0.998046875
      ],
      "min": [
        0.0019521713256835938,
        0.689453125
      ],
      "type": "VEC2"
    },
    {
      "bufferView": 0,
      "byteOffset": 93264,
      "componentType": 5125,
      "count": 1218,
      "type": "SCALAR"
    },
    {
      "bufferView": 2,
      "byteOffset": 328176,
      "componentType": 5126,
      "count": 8,
      "max": [
        15.405029296875,
        -264.82830810546875,
        49.28651428222656
      ],
      "min": [
        -8.8043212890625,
        -264.82830810546875,
        46.429107666015625
      ],
      "type": "VEC3"
    },
    {
      "bufferView": 2,
      "byteOffset": 328272,
      "componentType": 5126,
      "count": 8,
      "max": [
        0.0,
        -1.0,
        0.0
      ],
      "min": [
        0.0,
        -1.0,
        0.0
      ],
      "type": "VEC3"
    },
    {
      "bufferView": 1,
      "byteOffset": 218784,
      "componentType": 5126,
      "count": 8,
      "max": [
        0.93505859375,
        0.900634765625
      ],
      "min": [
        0.04937744140625,
        0.0126953125
      ],
      "type": "VEC2"
    },
    {
      "bufferView": 1,
      "byteOffset": 218848,
      "componentType": 5126,
      "count": 8,
      "max": [
        0.72705078125,
        0.720703125
      ],
      "min": [
        0.607421875,
        0.71826171875
      ],
      "type": "VEC2"
    },
    {
      "bufferView": 0,
      "byteOffset": 98136,
      "componentType": 5125,
      "count": 12,
      "type": "SCALAR"
    },
    {
      "bufferView": 2,
      "byteOffset": 328368,
      "componentType": 5126,
      "count": 1365,
      "max": [
        16.66656494140625,
        -263.6983642578125,
        50.873992919921875
      ],
      "min": [
        -13.11541748046875,
        -264.9084777832031,
        27.379074096679688
      ],
      "type": "VEC3"
    },
    {
      "bufferView": 2,
      "byteOffset": 344748,
      "componentType": 5126,
      "count": 1365,
      "max": [
        1.0,
        6.77608695696108e-05,
        0.9910293221473694
      ],
      "min": [
        -5.398876965045929e-06,
        -8.115115633700043e-05,
        -1.0
      ],
      "type": "VEC3"
    },
    {
      "bufferView": 1,
      "byteOffset": 218912,
      "componentType": 5126,
      "count": 1365,
      "max": [
        1.0,
        1.0
      ],
      "min": [
        0.0,
        0.0
      ],
      "type": "VEC2"
    },
    {
      "bufferView": 1,
      "byteOffset": 229832,
      "componentType": 5126,
      "count": 1365,
      "max": [
        0.998046875,
        0.998046875
      ],
      "min": [
        0.001953125,
        0.001953125
      ],
      "type": "VEC2"
    },
    {
      "bufferView": 0,
      "byteOffset": 98184,
      "componentType": 5125,
      "count": 1758,
      "type": "SCALAR"
    },
    {
      "bufferView": 2,
      "byteOffset": 361128,
      "componentType": 5126,
      "count": 1669,
      "max": [
        15.23785400390625,
        -264.64617919921875,
        40.6435546875
      ],
      "min": [
        12.93914794921875,
        -265.0639953613281,
        38.344818115234375
      ],
      "type": "VEC3"
    },
    {
      "bufferView": 2,
      "byteOffset": 381156,
      "componentType": 5126,
      "count": 1669,
      "max": [
        1.0,
        0.07114405930042267,
        1.0
      ],
      "min": [
        -1.0,
        -1.0,
        -1.0
      ],
      "type": "VEC3"
    },
    {
      "bufferView": 1,
      "byteOffset": 240752,
      "componentType": 5126,
      "count": 1669,
      "max": [
        9.9609375,
        10.15625
      ],
      "min": [
        -9.9609375,
        -10.9609375
      ],
      "type": "VEC2"
    },
    {
      "bufferView": 1,
      "byteOffset": 254104,
      "componentType": 5126,
      "count": 1669,
      "max": [
        0.994140625,
        0.9980478286743164
      ],
      "min": [
        0.0019521713256835938,
        0.525390625
      ],
      "type": "VEC2"
    },
    {
      "bufferView": 0,
      "byteOffset": 105216,
      "componentType": 5125,
      "count": 2694,
      "type": "SCALAR"
    },
    {
      "bufferView": 2,
      "byteOffset": 401184,
      "componentType": 5126,
      "count": 4,
      "max": [
        14.26434326171875,
        -264.64617919921875,
        40.20600891113281
      ],
      "min": [
        13.91851806640625,
        -264.64617919921875,
        39.05778503417969
      ],
      "type": "VEC3"
    },
    {
      "bufferView": 2,
      "byteOffset": 401232,
      "componentType": 5126,
      "count": 4,
      "max": [
        0.0,
        -1.0,
        0.0
      ],
      "min": [
        0.0,
        -1.0,
        0.0
      ],
      "type": "VEC3"
    },
    {
      "bufferView": 1,
      "byteOffset": 267456,
      "componentType": 5126,
      "count": 4,
      "max": [
        0.732421875,
        0.51953125
      ],
      "min": [
        0.280517578125,
        0.38330078125
      ],
      "type": "VEC2"
    },
    {
      "bufferView": 1,
      "byteOffset": 267488,
      "componentType": 5126,
      "count": 4,
      "max": [
        0.7646484375,
        0.689453125
      ],
      "min": [
        0.763671875,
        0.689208984375
      ],
      "type": "VEC2"
    },
    {
      "bufferView": 0,
      "byteOffset": 115992,
      "componentType": 5125,
      "count": 6,
      "type": "SCALAR"
    },
    {
      "bufferView": 2,
      "byteOffset": 401280,
      "componentType": 5126,
      "count": 44,
      "max": [
        11.333984375,
        -264.82830810546875,
        45.00164794921875
      ],
      "min": [
        -4.5423583984375,
        -264.82830810546875,
        39.9189453125
      ],
      "type": "VEC3"
    },
    {
      "bufferView": 2,
      "byteOffset": 401808,
      "componentType": 5126,
      "count": 44,
      "max": [
        0.0,
        -1.0,
        0.0
      ],
      "min": [
        0.0,
        -1.0,
        0.0
      ],
      "type": "VEC3"
    },
    {
      "bufferView": 1,
      "byteOffset": 267520,
      "componentType": 5126,
      "count": 44,
      "max": [
        1.0029296875,
        1.0054931640625
      ],
      "min": [
        -0.0037822723388671875,
        0.00537109375
      ],
      "type": "VEC2"
    },
    {
      "bufferView": 1,
      "byteOffset": 267872,
      "componentType": 5126,
      "count": 44,
      "max": [
        0.95166015625,
        0.951202392578125
      ],
      "min": [
        0.947265625,
        0.93695068359375
      ],
      "type": "VEC2"
    },
    {
      "bufferView": 0,
      "byteOffset": 116016,
      "componentType": 5125,
      "count": 126,
      "type": "SCALAR"
    }
  ],
  "asset": {
    "extras": {
      "author": "dayrook (https://sketchfab.com/dayrook)",
      "license": "CC-BY-4.0 (http://creativecommons.org/licenses/by/4.0/)",
      "source": "https://sketchfab.com/3d-models/astro-gents-arcade-cabinet-df33ff6aa315456f83b3f0fa12a3591c",
      "title": "Astro Gents Arcade Cabinet"
    },
    "generator": "Sketchfab-12.66.0",
    "version": "2.0"
  },
  "bufferViews": [
    {
      "buffer": 0,
      "byteLength": 116520,
      "name": "floatBufferViews",
      "target": 34963
    },
    {
      "buffer": 0,
      "byteLength": 268224,
      "byteOffset": 116520,
      "byteStride": 8,
      "name": "floatBufferViews",
      "target": 34962
    },
    {
      "buffer": 0,
      "byteLength": 402336,
      "byteOffset": 384744,
      "byteStride": 12,
      "name": "floatBufferViews",
      "target": 34962
    }
  ],
  "buffers": [
    {
      "byteLength": 787080,
      "uri": "scene.bin"
    }
  ],
  "images": [
    {
      "uri": "textures/M_ArcadePanels_baseColor.png"
    },
    {
      "uri": "textures/Trim_metallicRoughness.png"
    }
  ],
  "materials": [
    {
      "doubleSided": true,
      "name": "M_ArcadePanels",
      "pbrMetallicRoughness": {
        "baseColorTexture": {
          "index": 0
        },
        "metallicFactor": 0.0,
        "roughnessFactor": 0.8308205978495098
      }
    },
    {
      "doubleSided": true,
      "name": "Trim",
      "pbrMetallicRoughness": {
        "baseColorFactor": [
          0.005097615027984815,
          0.0045428184926791714,
          0.0045428184926791714,
          1.0
        ],
        "metallicFactor": 0.0,
        "metallicRoughnessTexture": {
          "index": 1
        }
      }
    },
    {
      "doubleSided": true,
      "name": "MetalSilver",
      "pbrMetallicRoughness": {
        "baseColorFactor": [
          0.04825934533322086,
          0.04145574351137342,
          0.04145574351137342,
          1.0
        ],
        "metallicRoughnessTexture": {
          "index": 1
        }
      }
    },
    {
      "doubleSided": true,
      "name": "MetalSilverBasic",
      "pbrMetallicRoughness": {
        "baseColorFactor": [
          0.8,
          0.8,
          0.8,
          1.0
        ],
        "roughnessFactor": 0.8308205978495098
      }
    },
    {
      "doubleSided": true,
      "name": "midway_c_Mat",
      "pbrMetallicRoughness": {
        "baseColorFactor": [
          1.0,
          0.0,
          0.0,
          1.0
        ],
        "metallicFactor": 0.0,
        "roughnessFactor": 0.9543509563404913
      }
    },
    {
      "doubleSided": true,
      "name": "material_0",
      "pbrMetallicRoughness": {
        "baseColorFactor": [
          0.01785087216157672,
          0.024770321648658264,
          0.0314744365057738,
          1.0
        ],
        "metallicFactor": 0.0
      }
    },
    {
      "doubleSided": true,
      "name": "MI_White",
      "pbrMetallicRoughness": {
        "baseColorFactor": [
          0.8834365490119371,
          0.8834365490119371,
          0.8834365490119371,
          1.0
        ],
        "metallicFactor": 0.0
      }
    },
    {
      "doubleSided": true,
      "name": "MI_GrayDark",
      "pbrMetallicRoughness": {
        "baseColorFactor": [
          0.0,
          0.0,
          0.0,
          1.0
        ],
        "metallicFactor": 0.0
      }
    },
    {
      "doubleSided": true,
      "name": "MetalGold",
      "pbrMetallicRoughness": {
        "baseColorFactor": [
          0.21815952230455524,
          0.17699853528112067,
          0.031320655034916906,
          1.0
        ],
        "metallicFactor": 0.8759958519125884,
        "roughnessFactor": 0.8308205978495098
      }
    }
  ],
  "meshes": [
    {
      "name": "AstroGents_Cabinet_M_ArcadePanels_0",
      "primitives": [
        {
          "attributes": {
            "NORMAL": 1,
            "POSITION": 0,
            "TEXCOORD_0": 2,
            "TEXCOORD_1": 3
          },
          "indices": 4,
          "material": 0,
          "mode": 4
        }
      ]
    },
    {
      "name": "AstroGents_Cabinet_Trim_0",
      "primitives": [
        {
          "attributes": {
            "NORMAL": 6,
            "POSITION": 5,
            "TEXCOORD_0": 7,
            "TEXCOORD_1": 8
          },
          "indices": 9,
          "material": 1,
          "mode": 4
        }
      ]
    },
    {
      "name": "AstroGents_Cabinet__MetalSilver_0",
      "primitives": [
        {
          "attributes": {
            "NORMAL": 11,
            "POSITION": 10,
            "TEXCOORD_0": 12,
            "TEXCOORD_1": 13
          },
          "indices": 14,
          "material": 2,
          "mode": 4
        }
      ]
    },
    {
      "name": "AstroGents_Cabinet_MetalSilverBasic_0",
      "primitives": [
        {
          "attributes": {
            "NORMAL": 16,
            "POSITION": 15,
            "TEXCOORD_0": 17,
            "TEXCOORD_1": 18
          },
          "indices": 19,
          "material": 3,
          "mode": 4
        }
      ]
    },
    {
      "name": "AstroGents_Cabinet_midway_c_Mat_0",
      "primitives": [
        {
          "attributes": {
            "NORMAL": 21,
            "POSITION": 20,
            "TEXCOORD_0": 22,
            "TEXCOORD_1": 23
          },
          "indices": 24,
          "material": 4,
          "mode": 4
        }
      ]
    },
    {
      "name": "AstroGents_Cabinet_M_Base_0",
      "primitives": [
        {
          "attributes": {
            "NORMAL": 26,
            "POSITION": 25,
            "TEXCOORD_0": 27,
            "TEXCOORD_1": 28
          },
          "indices": 29,
          "material": 5,
          "mode": 4
        }
      ]
    },
    {
      "name": "AstroGents_Cabinet_MI_White_0",
      "primitives": [
        {
          "attributes": {
            "NORMAL": 31,
            "POSITION": 30,
            "TEXCOORD_0": 32,
            "TEXCOORD_1": 33
          },
          "indices": 34,
          "material": 6,
          "mode": 4
        }
      ]
    },
    {
      "name": "AstroGents_Cabinet_MI_GrayDark_0",
      "primitives": [
        {
          "attributes": {
            "NORMAL": 36,
            "POSITION": 35,
            "TEXCOORD_0": 37,
            "TEXCOORD_1": 38
          },
          "indices": 39,
          "material": 7,
          "mode": 4
        }
      ]
    },
    {
      "name": "AstroGents_Cabinet__MetalGold_0",
      "primitives": [
        {
          "attributes": {
            "NORMAL": 41,
            "POSITION": 40,
            "TEXCOORD_0": 42,
            "TEXCOORD_1": 43
          },
          "indices": 44,
          "material": 8,
          "mode": 4
        }
      ]
    }
  ],
  "nodes": [
    {
      "children": [
        1
      ],
      "matrix": [
        1.0,
        0.0,
        0.0,
        0.0,
        0.0,
        2.220446049250313e-16,
        -1.0,
        0.0,
        0.0,
        1.0,
        2.220446049250313e-16,
        0.0,
        0.0,
        0.0,
        0.0,
        1.0
      ],
      "name": "Sketchfab_model"
    },
    {
      "children": [
        2
      ],
      "matrix": [
        1.0,
        0.0,
        0.0,
        0.0,
        0.0,
        0.0,
        1.0,
        0.0,
        0.0,
        -1.0,
        0.0,
        0.0,
        0.0,
        0.0,
        0.0,
        1.0
      ],
      "name": "91a61ef307cd4c2b907b5740c74a28a6.fbx"
    },
    {
      "children": [
        3,
        6,
        8
      ],
      "name": "RootNode"
    },
    {
      "children": [
        4
      ],
      "matrix": [
        -29.08647719990347,
        -5.518906457566863,
        -95.51711910171437,
        0.0,
        56.63930913109449,
        79.46723428563203,
        -21.83912397841966,
        0.0,
        77.11008775993375,
        -60.45246356562044,
        -19.98834696773717,
        0.0,
        407.6245422363281,
        590.38623046875,
        -100.54539489746094,
        1.0
      ],
      "name": "Light"
    },
    {
      "children": [
        5
      ],
      "matrix": [
        1.0,
        0.0,
        0.0,
        0.0,
        0.0,
        2.220446049250313e-16,
        1.0,
        0.0,
        0.0,
        -1.0,
        2.220446049250313e-16,
        0.0,
        0.0,
        0.0,
        0.0,
        1.0
      ],
      "name": "Object_4"
    },
    {
      "name": "Object_5"
    },
    {
      "children": [
        7
      ],
      "matrix": [
        -65.15583280329096,
        -44.52713576570858,
        -61.41703047373549,
        0.0,
        -32.40134137821245,
        89.53957451233616,
        -30.542088974418615,
        0.0,
        68.59205472129975,
        -1.0718647115348782e-05,
        -72.7676336239627,
        0.0,
        735.88916015625,
        495.8309326171875,
        692.5791015625,
        1.0
      ],
      "name": "Camera"
    },
    {
      "name": "Object_7"
    },
    {
      "children": [
        9,
        10,
        11,
        12,
        13,
        14,
        15,
        16,
        17
      ],
      "matrix": [
        1.0,
        0.0,
        0.0,
        0.0,
        0.0,
        -1.6292067939183141e-07,
        -0.9999999999999868,
        0.0,
        0.0,
        0.9999999999999868,
        -1.6292067939183141e-07,
        0.0,
        0.0,
        0.0,
        0.0,
        1.0
      ],
      "name": "AstroGents_Cabinet"
    },
    {
      "mesh": 0,
      "name": "AstroGents_Cabinet_M_ArcadePanels_0"
    },
    {
      "mesh": 1,
      "name": "AstroGents_Cabinet_Trim_0"
    },
    {
      "mesh": 2,
      "name": "AstroGents_Cabinet__MetalSilver_0"
    },
    {
      "mesh": 3,
      "name": "AstroGents_Cabinet_MetalSilverBasic_0"
    },
    {
      "mesh": 4,
      "name": "AstroGents_Cabinet_midway_c_Mat_0"
    },
    {
      "mesh": 5,
      "name": "AstroGents_Cabinet_M_Base_0"
    },
    {
      "mesh": 6,
      "name": "AstroGents_Cabinet_MI_White_0"
    },
    {
      "mesh": 7,
      "name": "AstroGents_Cabinet_MI_GrayDark_0"
    },
    {
      "mesh": 8,
      "name": "AstroGents_Cabinet__MetalGold_0"
    }
  ],
  "samplers": [
    {
      "magFilter": 9729,
      "minFilter": 9987,
      "wrapS": 10497,
      "wrapT": 10497
    }
  ],
  "scene": 0,
  "scenes": [
    {
      "name": "Sketchfab_Scene",
      "nodes": [
        0
      ]
    }
  ],
  "textures": [
    {
      "sampler": 0,
      "source": 0
    },
    {
      "sampler": 0,
      "source": 1
    }
  ]
}
